<svg viewBox="0 0 100 100" xmlns="http://www.w3.org/2000/svg"><symbol viewBox="0 0 48 48" id="icon-11-disabled"><title>Webcam Cache - disabled</title><circle cx="24" cy="24" r="24" fill="#fff"/><circle cx="24" cy="24" r="20" fill="#cdcdcd"/><path d="M24.038 18.879c-1.997 0-3.616 1.593-3.616 3.559 0 1.966 1.619 3.559 3.616 3.559s3.616-1.593 3.616-3.559c0-1.965-1.619-3.559-3.616-3.559zm3.982 12.622c3.566-1.529 6.061-5.026 6.061-9.099 0-5.48-4.513-9.922-10.08-9.922s-10.08 4.442-10.08 9.922c0 4.073 2.495 7.572 6.062 9.1-2.444.908-4.377 2.433-4.377 3.583 0 .222.09.436.443.436h15.954a.428.428 0 0 0 .443-.436c-.001-1.151-1.963-2.677-4.426-3.584zm-4.007-3.916c-2.902 0-5.255-2.315-5.255-5.172s2.353-5.172 5.255-5.172 5.254 2.315 5.254 5.172-2.352 5.172-5.254 5.172z" fill="#fff"/></symbol><symbol viewBox="0 0 48 48" id="icon-11"><title>Webcam Cache</title><circle cx="24" cy="24" r="24" fill="#fff"/><circle cx="24" cy="24" r="20" fill="#009bbb"/><path d="M24.038 18.879c-1.997 0-3.616 1.593-3.616 3.559 0 1.966 1.619 3.559 3.616 3.559s3.616-1.593 3.616-3.559c0-1.965-1.619-3.559-3.616-3.559zm3.982 12.622c3.566-1.529 6.061-5.026 6.061-9.099 0-5.48-4.513-9.922-10.08-9.922s-10.08 4.442-10.08 9.922c0 4.073 2.495 7.572 6.062 9.1-2.444.908-4.377 2.433-4.377 3.583 0 .222.09.436.443.436h15.954a.428.428 0 0 0 .443-.436c-.001-1.151-1.963-2.677-4.426-3.584zm-4.007-3.916c-2.902 0-5.255-2.315-5.255-5.172s2.353-5.172 5.255-5.172 5.254 2.315 5.254 5.172-2.352 5.172-5.254 5.172z" fill="#fff"/></symbol><symbol viewBox="0 0 48 48" id="icon-12-disabled"><title>Locationless (Reverse) Cache - disabled</title><circle cx="24" cy="24" r="24" fill="#fff"/><circle cx="24" cy="24" r="20" fill="#cdcdcd"/><path d="M25.207 17.157C19.006 16.064 13.093 20.204 12 26.405s3.047 12.114 9.248 13.208c6.201 1.093 12.114-3.047 13.207-9.248 1.093-6.202-3.047-12.115-9.248-13.208zm-1.818 2.285l-2.116 1.504-.575-1.419-.223-1.182-.852 1.302-1.34-.045.619-.511-.27-.142-2.08 2.019.605 1.044.94-1.905 1.146.614.315 1.826.007-.001-.006.009.1.578-.331-.219.231-.359-.001-.008-.911.123s.227.694.162.686c-.26-.028-.863.15-.863.15-.614.399-1.757 1.758-1.757 1.758l-.172.873-.746-.749-.736.071-.515 1.374.462.279.589-.297.461.778-.022.693 1.037.112 1.949.597.995 2.088.766.555-1.552 1.807-.96 2.1-.78.663-.242.556-1.088-1.242.073-1.771L15 31.432l.002-1.542.933-.752-2.131-2.131-.893-1.565s.234-2.329 4.296-5.665c3.523-2.894 7.354-1.841 7.354-1.841l-.856 1.357-.316.149zm4.814 14.854l-1.041 1.383-1.652 1.036-.508-1.616.039-2.364-.324-2.416-1.475.051-.854-1.751.731-1.252 1.242-1.427.509-.22.735.177.629.062.396.77 1.885.341s.058-.017.719 1.041c.661 1.058.634 1.256.634 1.256l-.488.819-.294.048.849.274-1.732 3.788zm3.539-6.157l-.999-.049s-.156-.713-.625-1.078c-.469-.365-1.548-.913-1.548-.913L27.958 26l-.355-.662-.48.506-.066-.302-.534.027-.769-1.145-.78.12-.505.359-.446-.114.155-.586.72.012.308-.971-.488-.223.123-.714-.468.08.518-.239-.051-.432.135-.097.388 1.333.821-.258.092-.548.195.566.832.017.557-1.219-.195-.021-.076-.578-.706 1.446-.41-.641-.134.143-.339-.496 2.188-1.811 1.655 1.143 1.005.232s1.442 1.258 1.986 3.865.843 4.081.843 4.081l-.915 2.045-1.02-2.779zM28.121 9.148l-1.03 5.844 7.82-1.634-6.79-4.21zm-2.79 7.164c.241.042.557-.173.557-.173l1.352-7.665-.984-.173-1.352 7.665s.186.304.427.346z" fill="#fff"/></symbol><symbol viewBox="0 0 48 48" id="icon-12"><title>Locationless (Reverse) Cache</title><circle cx="23.997" cy="24" r="24" fill="#fff"/><circle cx="23.997" cy="24" r="20" fill="#87705a"/><path d="M25.204 17.157c-6.201-1.093-12.114 3.047-13.207 9.248s3.047 12.114 9.248 13.208c6.201 1.093 12.114-3.047 13.207-9.248 1.093-6.202-3.048-12.115-9.248-13.208zm-1.818 2.285l-2.116 1.504-.575-1.419-.223-1.182-.852 1.302-1.34-.045.619-.511-.27-.142-2.08 2.019.605 1.044.94-1.905 1.146.614.315 1.826.007-.001-.006.009.1.578-.331-.219.231-.359-.001-.008-.911.123s.227.694.162.686c-.26-.028-.863.15-.863.15-.614.399-1.757 1.758-1.757 1.758l-.172.873-.746-.749-.736.071-.515 1.374.462.279.589-.297.461.778-.022.693 1.037.112 1.949.597.995 2.088.766.555-1.552 1.807-.96 2.1-.78.663-.242.556-1.088-1.242.073-1.771-.708-2.319.002-1.542.933-.752-2.131-2.131-.893-1.565s.234-2.329 4.296-5.665c3.523-2.894 7.354-1.841 7.354-1.841l-.856 1.357-.316.149zm4.813 14.854l-1.041 1.383-1.652 1.036-.508-1.616.039-2.364-.324-2.416-1.475.051-.854-1.751.731-1.252 1.242-1.427.509-.22.735.177.629.062.396.77 1.885.341s.058-.017.719 1.041c.661 1.058.634 1.256.634 1.256l-.488.819-.294.048.849.274-1.732 3.788zm3.539-6.157l-.998-.049s-.156-.713-.625-1.078c-.469-.365-1.548-.913-1.548-.913L27.955 26l-.355-.661-.48.506-.066-.302-.534.027-.769-1.145-.78.12-.505.359-.446-.114.155-.586.72.012.308-.971-.488-.223.123-.714-.468.08.518-.239-.051-.432.135-.097.388 1.333.821-.258.092-.548.195.566.832.017.557-1.219-.195-.021-.076-.578-.706 1.446-.41-.641-.134.143-.339-.496 2.188-1.811 1.655 1.143 1.005.232s1.442 1.258 1.986 3.865c.545 2.607.843 4.081.843 4.081l-.915 2.045-1.021-2.78zm-3.62-18.991l-1.03 5.844 7.82-1.634-6.79-4.21zm-2.791 7.164c.241.042.557-.173.557-.173l1.352-7.665-.984-.173-1.352 7.665c.001 0 .187.304.427.346z" fill="#fff"/></symbol><symbol viewBox="0 0 48 48" id="icon-13-disabled"><title>Cache In Trash Out Event - disabled</title><ellipse cx="24" cy="24" rx="24" ry="24" fill="#fff"/><path d="M23.731 4.219c10.895 0 19.727 8.832 19.727 19.727s-8.831 19.727-19.727 19.727c-10.894 0-19.726-8.832-19.726-19.727S12.837 4.219 23.731 4.219" fill="#ededed"/><path d="M9.719 36.249c-3.306-3.768-4.921-8.612-4.582-13.611s2.605-9.564 6.38-12.855a18.614 18.614 0 0 1 13.604-4.569 18.634 18.634 0 0 1 11.419 4.912c-3.483-2.565-8.395-2.471-11.788.487-3.926 3.423-4.331 9.383-.905 13.313v.001c3.426 3.93 3.02 9.889-.905 13.312a9.436 9.436 0 0 1-6.229 2.32c-2.769 0-4.998-1.035-6.994-3.31" fill="#cdcdcd"/><path d="M16.13 25.221c.656 0 1.187-.527 1.187-1.176 0-.65-.532-1.176-1.187-1.176-.656 0-1.187.527-1.187 1.176 0 .649.531 1.176 1.187 1.176" fill="#fff"/><path d="M13.599 34.898c.052-2.435.898-5.062 2.531-6.659 1.611 1.24 2.654 2.854 3.065 4.896h2.352c-.59-2.854-2.183-4.676-4.091-5.919 2.282-1.814 2.726-3.716 2.726-4.723h-.912c-.139.946-.648 2.385-3.14 3.846-2.64-1.533-3.044-2.894-3.14-3.846h-.911c0 1.084.456 3.035 2.732 4.724-2.347 2.346-3.312 5.254-3.523 7.683h2.311m20.372-18.619l.442-1.906-.537.31-1.196-2.027c-.376-.652-.942-1.025-1.552-1.025s-1.176.374-1.552 1.025l-1.38 2.379 1.223.706 1.38-2.379c.135-.234.195-.319.33-.319s.194.085.33.319l1.196 2.027-.554.32 1.87.57zm-1.74 5.848v-.633h2.448c.752 0 1.359-.303 1.664-.832.305-.529.265-1.205-.112-1.857l-1.373-2.364-1.223.706 1.374 2.364c.135.234.173.349.112.445-.066.104-.171.126-.441.126h-2.448v-.627l-1.43 1.336 1.429 1.336zm-4.654-.633c-.752 0-1.359-.303-1.664-.832s-.264-1.205.112-1.857l1.184-2.008-.553-.319 1.872-.57.442 1.906-.538-.311-1.184 2.008c-.135.234-.181.346-.112.445.069.099.171.126.441.126h2.65v1.412h-2.65z" fill="#fff"/></symbol><symbol viewBox="0 0 48 48" id="icon-13"><title>Cache In Trash Out Event - disabled</title><ellipse cx="24" cy="24" rx="24" ry="24" fill="#fff"/><path d="M23.731 4.219c10.895 0 19.727 8.832 19.727 19.727s-8.831 19.727-19.727 19.727c-10.894 0-19.726-8.832-19.726-19.727S12.837 4.219 23.731 4.219" fill="#003a65"/><path d="M9.719 36.249c-3.306-3.768-4.921-8.612-4.582-13.611s2.605-9.564 6.38-12.855a18.614 18.614 0 0 1 13.604-4.569 18.634 18.634 0 0 1 11.419 4.912c-3.483-2.565-8.395-2.471-11.788.487-3.926 3.423-4.331 9.383-.905 13.313v.001c3.426 3.93 3.02 9.889-.905 13.312a9.436 9.436 0 0 1-6.229 2.32c-2.769 0-4.998-1.035-6.994-3.31" fill="#029f4c"/><path d="M16.13 25.221c.656 0 1.187-.527 1.187-1.176 0-.65-.532-1.176-1.187-1.176-.656 0-1.187.527-1.187 1.176 0 .649.531 1.176 1.187 1.176" fill="#fff"/><path d="M13.599 34.898c.052-2.435.898-5.062 2.531-6.659 1.611 1.24 2.654 2.854 3.065 4.896h2.352c-.59-2.854-2.183-4.676-4.091-5.919 2.282-1.814 2.726-3.716 2.726-4.723h-.912c-.139.946-.648 2.385-3.14 3.846-2.64-1.533-3.044-2.894-3.14-3.846h-.911c0 1.084.456 3.035 2.732 4.724-2.347 2.346-3.312 5.254-3.523 7.683h2.311m20.372-18.619l.442-1.906-.537.31-1.196-2.027c-.376-.652-.942-1.025-1.552-1.025s-1.176.374-1.552 1.025l-1.38 2.379 1.223.706 1.38-2.379c.135-.234.195-.319.33-.319s.194.085.33.319l1.196 2.027-.554.32 1.87.57zm-1.74 5.848v-.633h2.448c.752 0 1.359-.303 1.664-.832.305-.529.265-1.205-.112-1.857l-1.373-2.364-1.223.706 1.374 2.364c.135.234.173.349.112.445-.066.104-.171.126-.441.126h-2.448v-.627l-1.43 1.336 1.429 1.336zm-4.654-.633c-.752 0-1.359-.303-1.664-.832s-.264-1.205.112-1.857l1.184-2.008-.553-.319 1.872-.57.442 1.906-.538-.311-1.184 2.008c-.135.234-.181.346-.112.445.069.099.171.126.441.126h2.65v1.412h-2.65z" fill="#fff"/></symbol><symbol viewBox="0 0 48 48" id="icon-1304-disabled"><title>GPS Adventures Exhibit - disabled</title><circle cx="24" cy="24" r="24" fill="#fff"/><circle cx="24" cy="24" r="20" fill="#ededed"/><path d="M30.611 26.472c-.145.163-.317.618-.511.723a1.73 1.73 0 0 1-.156.513c-.309.644-.986 1.06-1.724 1.06-.275 0-.543-.057-.794-.168a1.853 1.853 0 0 1-.934-.903 2.023 2.023 0 0 1-1.051.296c-.134 0-.263-.014-.389-.042a1.652 1.652 0 0 1-.634.493 1.98 1.98 0 0 1-1.987-.197c-.18.413-.513.762-.948.961a1.973 1.973 0 0 1-.825.179c-.74 0-1.422-.414-1.74-1.054a1.792 1.792 0 0 1-.165-.525c-.078-.041-.152-.404-.223-.455a7.963 7.963 0 0 0-1.729 3.27c-.541 2.106-.194 4.288.975 6.144 1.169 1.856 3.021 3.164 5.216 3.683a8.708 8.708 0 0 0 6.401-.936c1.934-1.122 3.296-2.9 3.837-5.006a7.793 7.793 0 0 0-.975-6.144" fill="#9b9b9b"/><path d="M22.026 10.658l.11-.103a1.03 1.03 0 0 0 .324-.947c-.092-.514-.553-.888-1.096-.888a1.2 1.2 0 0 0-.188.015c-.606.099-1.013.653-.909 1.233.058.325.269.602.581.759l.127.065.065 1.869h1.672l-.686-2.003" fill="#cdcdcd"/><path d="M30.823 29.462l-.074-.655-.194-.02.143.43-.179.386.304-.141zm-1.074 2.862l-.184-.031.757.584-.169-.374-.534-.815.286.165-.196-.817.127.051.283-.418-.275-.871-.184-.012.071-.151.56.23-.202-.475.356-.772-.569-.23-.101-.376-.224-.298c-.35.487-.934.789-1.562.789-.275 0-.543-.057-.794-.168a1.871 1.871 0 0 1-.812-.686l-.048.041-.126.505-.47.073.079.275-.625.088-.011.204-.932-.124-.533 1.169.246.13.026-.084.306.174-.008-.722.153.217.085-.031.024.602-.351.161-.201-.187.077.238-.289.27-.442-.456-.036.066.113.163-.166.2.178-.126.099.311.25-.01.076.452-.303.14.059.267.211-.045.135-.246.301-.205.563.304.217-.118.091.108.095-.3.287.194.277-.084.051.323-.86.244-.328-.229-.278.099-.345.078-.167.191-.219.823-.042.65.725.531.606-.319.643.904.481.956.553.545.472-.749.144-.765-.073-1.869-.413.061.113-.078.031-.428.228-.611.427-.182 1.01.909.257-1.094.525.324.418.747zm-8.441-.723l-.163-.212-.022.191.185.021zm-.165-.214l.003.003v-.005l-.003.002zm1.569 3.596l-.855-.637-.94.154-.458.164-.136-.282-.357-.219-.184.239-.252-.019-.073-.655.293-.178.469.15-.112-.385s.192-.776.365-1.061c0 0 .215-.194.329-.234l-.212-.242.355-.234-.516-.669-.609-.015.008.955-.761-.446.444-1.23.431.151-.151.33.57-.252-1.025-.76.489-.558a1.985 1.985 0 0 1-.486-.169l-.527.403.307.184-.282.205.129.097-.086.272-.254.166.328.239-.289.279-.271-.5s-.119.153-.176.173l-.331-.072-.294.891-.029.983.231.724.999 1.336-.018-.213.703.447 1.339.425-.232.49.323.619.784.788.385.96.331.84.319.239-.042-.323.049-.984.186-.424-.041-1.037.269-1.038-.436-.067zm-.622-5.457l.101-.124.018-1.261-.113.007a1.894 1.894 0 0 1-.847.765 1.973 1.973 0 0 1-1.089.161l-.001.012-.116.226.55-.019.388.81.539.453.57-1.03zm11.751-17.175a4.583 4.583 0 0 0-.546-.033c-.56 0-1.033.409-1.369 1.185-.005.013-.514 1.605-.206 3.192.129.66-.174.72-1.453.97l-.188.037c-1.352.266-2.724.181-4.077.558l-.231-.409c.752-.624 1.164-1.359 1.16-2.071a1.855 1.855 0 0 0-.03-.322c-.105-.591-.349-1.329-1.304-1.794l-.099-.048-.028-.102c-.454-1.629-1.483-2.765-2.502-2.765a1.37 1.37 0 0 0-.22.018c-.486.08-.742.378-1.082.839-.078.105-.15.222-.215.346l-.153.292-.243-.229a2.834 2.834 0 0 0-.334-.274c-.377-.255-.786-.391-1.185-.391a5.29 5.29 0 0 0-.472.022c-.402.066-.772.327-1.07.754-.392.562-.615 1.343-.61 2.142.002.17.017.356.048.568l.016.113-.081.083c-.436.446-.647.953-.644 1.548.001.168.019.346.055.544.1.565.458 1.069 1.031 1.459.318.216.714.397 1.177.538l.085.025.048.071c.105.153.22.327.345.518l.12.185-.181.131a52.045 52.045 0 0 0-3.796 3.024l-.267.236c-.607.536-.836.724-1.036.724l-.043-.001-.034-.01c-.104-.029-.202-.121-.319-.297-.813-1.228-2.165-2.235-3.217-2.396a2.526 2.526 0 0 0-.39-.031c-.719 0-1.236.33-1.495.956-.656 1.583.489 4.576 3.179 6.338.885.58 1.651.874 2.277.874.274 0 .526-.058.747-.173 1.074-.56 1.143-2.3 1.146-2.642l.001-.067.037-.057c1.213-1.868 2.747-3.478 3.986-4.553l.247-.214.143.289c.443.895.867 1.521.87 1.984a1.16 1.16 0 0 1-.005.124c-.012.077-.125.754-.609 1.076a.98.98 0 0 1-.204.104l-.199.074-.106-.178a1.072 1.072 0 0 0-1.359-.412c-.255.115-.446.32-.541.574a.97.97 0 0 0 .041.772c.134.27.39.468.702.542l.212.05-.025.209a.97.97 0 0 0 .092.55c.174.352.549.58.955.58.157 0 .31-.033.452-.098.397-.182.631-.573.597-.997l-.01-.117.771-.664.108.367c.017.056.035.112.062.166.174.352.548.579.955.579.157 0 .31-.033.452-.098a.747.747 0 0 0 .453-.588l.069-.433.341.291c.152.13.333.197.538.197.07 0 .143-.008.218-.024.427-.091.69-.364.72-.749l.033-.42.358.244c.119.082.232.153.34.216l.161.092-.048.173c-.13.466.106.95.56 1.151.137.06.282.091.431.091.401 0 .768-.226.936-.574a.953.953 0 0 0 .083-.538l-.028-.208.212-.052c.303-.076.55-.271.677-.536a.944.944 0 0 0 .032-.753.998.998 0 0 0-.533-.554 1.055 1.055 0 0 0-1.157.206l-.087.085-.123-.016c-.799-.104-1.39-.379-1.807-.839-.812-.896-.72-2.134-.643-3.544l.012-.216.224-.01c.88-.039 5.884.183 6.877.254l.083.006.063.054c.231.198 1.048.842 1.858.842h.001c.158 0 .309-.025.448-.076.727-.264 1.161-1.199 1.292-2.778.194-2.328-1.006-5.527-2.533-5.881zm-19.262 16.09c-.559.497-2.07-.433-3.352-1.757-1.282-1.324-1.869-2.995-1.31-3.493.559-.497 2.053.368 3.335 1.691 1.282 1.326 1.886 3.061 1.327 3.559zm8.72-16.3c.442-.076 1.01.367 1.368 1.228.548 1.318.191 1.694-.792 1.862-.984.168-1.454-.065-1.416-1.484.026-.925.399-1.53.84-1.606zm-4.848 1.456c.179-.91.647-1.45 1.095-1.457.449-.008.936.517 1.147 1.421.322 1.384-.092 1.701-1.092 1.717-.997.016-1.423-.287-1.15-1.681zm6.066 11.458a.644.644 0 0 0-.128.164l-.221.435-.224-.434a30.006 30.006 0 0 0-.582-1.082c-.274-.48-.619-1.871-.839-2.658l-.068-.241.188-.053c.117-.025.249-.052.341-.066a2.8 2.8 0 0 0 .312-.079l.257-.077.059.252c.089.385.271 1.153.472 1.919.166.633.311 1.137.432 1.5l.111.315-.11.105zm-2.33-6.723a7.495 7.495 0 0 1-1.224.029c-1.934-.122-2.672-1.078-2.92-1.548.661-.083 2.285-.283 4.156-.475l1.004-.101c.914-.092 1.865-.187 2.756-.29-.183.635-.913 2.099-3.772 2.385zm12.729 1.678c-.666.118-1.613-1.32-1.892-3.009-.28-1.688-.108-3.265.556-3.383.667-.118 1.575 1.269 1.855 2.959.28 1.688.148 3.315-.519 3.433zm-3.999 13.128l-.362.366.244.807.484.029.219-.314.126.015.265-.631.002-.445-.418-.087-.56.26zm-1.623 4.165l.43.124.476-.407.325-1.05-.65.894-.581.439zm2.177-6.085l-.173-.726-.163-.726-.342.161.312.554.366.737zm-.802.975l-.087-.507-.169.637.256-.13z" fill="#cdcdcd"/><path d="M12.324 21.726c.031.105.126.464.145.852.018.363-.05.578-.059.711.044.154.113.321.291.182.228-.178.527-.694.461-1.086a6.098 6.098 0 0 0-.838-.659zm9.762 3.777c-.453-.066-.728-.491-.818-.652a1.005 1.005 0 0 1-.411.289l-.036.013c-.15.432.652.805 1.156.679.562-.14.337-.296.109-.329zm-1.212-11.242a3.259 3.259 0 0 0-.04-.306c-.06-.34-.178-.703-.371-.964-.451-.604-.806.418-.868.785-.057.329-.074.788.151 1.072.191.239.681.332.947.162.258-.164.203-.497.181-.749zm-.391.19a.236.236 0 0 1-.237-.236.235.235 0 1 1 .471-.002.236.236 0 0 1-.234.238zm-2.303 1.317c-.197-.121-.371-.538-.421-.666l-.092-.329-.06.062a2.192 2.192 0 0 0-.546.914c.089.114.283.22.283.22v-.001c.222.137.515.174.515.174-.232-.144-.437-.708-.437-.708l-.034-.15.066.088c.144.326.726.396.726.396zm14.166-1.295c-.183-.321-.257-.819-.279-1.013-.07.259-.157.663-.192 1.157.145.267.348.495.519.546.219.064.311-.063.291-.223-.06-.118-.225-.267-.339-.467zm-4.849 9.705c-.129.196-.376.485-.739.542-.227.036-.45.193.113.328.527.126 1.375-.297 1.123-.749a3.805 3.805 0 0 1-.497-.121zm-.632-9.621c.034-.044.078-.105.11-.168a2.249 2.249 0 0 0-.857-.734l.001.254s.003.597-.167.807c0 0 .525-.252.549-.604l.031-.09.02.138s.003.596-.166.807c-.001-.001.333-.164.479-.41zm-3.915-1.528c-.124.296-.148.676-.122 1.02.008.108.021.21.036.307.042.25.07.585.361.687.301.104.754-.098.88-.373.148-.328.018-.769-.118-1.076-.151-.342-.747-1.255-1.037-.565zm.202 1.34a.236.236 0 0 1-.237-.236.235.235 0 1 1 .471-.002.236.236 0 0 1-.234.238zm7.642 2.653c.72 1.516 2.321 2.418 2.321 2.418-.506-.76-.851-1.708-1.021-3.112-.002.411-.345.505-1.3.694zm-15.899 7.153c.91 1.247 1.453 2.553 1.429 3.547a5.021 5.021 0 0 0 .179-1.265l.001-.067.037-.057c.174-.269.362-.533.555-.793-.149-.408-1.49-1.067-2.201-1.365zm18.323-.423l2.946 3.538.098-.589-2.517-2.784-.527-.165zm5.586.274l-4.145-1.981-.651.022 4.998 2.609-.202-.65zm-27.537 9.295l.096.732 3.291-3.686-.187-.201-3.2 3.155zm3.628.06l.259.395 1.19-2.491-.178-.088-1.271 2.184zm4.943-13.748s1.266.977 3.17.507c2.281-.562 3.17-2.029 3.17-2.029s-2.045 1.295-3.699 1.522c-1.848.254-2.641 0-2.641 0zM8 8" fill="#9b9b9b"/></symbol><symbol viewBox="0 0 48 48" id="icon-1304"><title>GPS Adventures Exhibit</title><circle cx="24" cy="24" r="24" fill="#fff"/><circle cx="24" cy="24" r="20" fill="#ede9d1"/><path d="M30.611 26.472c-.145.163-.317.618-.511.723a1.73 1.73 0 0 1-.156.513c-.309.644-.986 1.06-1.724 1.06-.275 0-.543-.057-.794-.168a1.853 1.853 0 0 1-.934-.903 2.023 2.023 0 0 1-1.051.296c-.134 0-.263-.014-.389-.042a1.652 1.652 0 0 1-.634.493 1.98 1.98 0 0 1-1.987-.197c-.18.413-.513.762-.948.961a1.973 1.973 0 0 1-.825.179c-.74 0-1.422-.414-1.74-1.054a1.792 1.792 0 0 1-.165-.525c-.078-.041-.152-.404-.223-.455a7.963 7.963 0 0 0-1.729 3.27c-.541 2.106-.194 4.288.975 6.144 1.169 1.856 3.021 3.164 5.216 3.683a8.708 8.708 0 0 0 6.401-.936c1.934-1.122 3.296-2.9 3.837-5.006a7.793 7.793 0 0 0-.975-6.144" fill="#173599"/><path d="M22.026 10.658l.11-.103a1.03 1.03 0 0 0 .324-.947c-.092-.514-.553-.888-1.096-.888a1.2 1.2 0 0 0-.188.015c-.606.099-1.013.653-.909 1.233.058.325.269.602.581.759l.127.065.065 1.869h1.672l-.686-2.003" fill="#ffcb16"/><path d="M30.823 29.462l-.074-.655-.194-.02.143.43-.179.386.304-.141zm-1.074 2.862l-.184-.031.757.584-.169-.374-.534-.815.286.165-.196-.817.127.051.283-.418-.275-.871-.184-.012.071-.151.56.23-.202-.475.356-.772-.569-.23-.101-.376-.224-.298c-.35.487-.934.789-1.562.789-.275 0-.543-.057-.794-.168a1.871 1.871 0 0 1-.812-.686l-.048.041-.126.505-.47.073.079.275-.625.088-.011.204-.932-.124-.533 1.169.246.13.026-.084.306.174-.008-.722.153.217.085-.031.024.602-.351.161-.201-.187.077.238-.289.27-.442-.456-.036.066.113.163-.166.2.178-.126.099.311.25-.01.076.452-.303.14.059.267.211-.045.135-.246.301-.205.563.304.217-.118.091.108.095-.3.287.194.277-.084.051.323-.86.244-.328-.229-.278.099-.345.078-.167.191-.219.823-.042.65.725.531.606-.319.643.904.481.956.553.545.472-.749.144-.765-.073-1.869-.413.061.113-.078.031-.428.228-.611.427-.182 1.01.909.257-1.094.525.324.418.747zm-8.441-.723l-.163-.212-.022.191.185.021zm-.165-.214l.003.003v-.005l-.003.002zm1.569 3.596l-.855-.637-.94.154-.458.164-.136-.282-.357-.219-.184.239-.252-.019-.073-.655.293-.178.469.15-.112-.385s.192-.776.365-1.061c0 0 .215-.194.329-.234l-.212-.242.355-.234-.516-.669-.609-.015.008.955-.761-.446.444-1.23.431.151-.151.33.57-.252-1.025-.76.489-.558a1.985 1.985 0 0 1-.486-.169l-.527.403.307.184-.282.205.129.097-.086.272-.254.166.328.239-.289.279-.271-.5s-.119.153-.176.173l-.331-.072-.294.891-.029.983.231.724.999 1.336-.018-.213.703.447 1.339.425-.232.49.323.619.784.788.385.96.331.84.319.239-.042-.323.049-.984.186-.424-.041-1.037.269-1.038-.436-.067zm-.622-5.457l.101-.124.018-1.261-.113.007a1.894 1.894 0 0 1-.847.765 1.973 1.973 0 0 1-1.089.161l-.001.012-.116.226.55-.019.388.81.539.453.57-1.03zm11.751-17.175a4.583 4.583 0 0 0-.546-.033c-.56 0-1.033.409-1.369 1.185-.005.013-.514 1.605-.206 3.192.129.66-.174.72-1.453.97l-.188.037c-1.352.266-2.724.181-4.077.558l-.231-.409c.752-.624 1.164-1.359 1.16-2.071a1.855 1.855 0 0 0-.03-.322c-.105-.591-.349-1.329-1.304-1.794l-.099-.048-.028-.102c-.454-1.629-1.483-2.765-2.502-2.765a1.37 1.37 0 0 0-.22.018c-.486.08-.742.378-1.082.839-.078.105-.15.222-.215.346l-.153.292-.243-.229a2.834 2.834 0 0 0-.334-.274c-.377-.255-.786-.391-1.185-.391a5.29 5.29 0 0 0-.472.022c-.402.066-.772.327-1.07.754-.392.562-.615 1.343-.61 2.142.002.17.017.356.048.568l.016.113-.081.083c-.436.446-.647.953-.644 1.548.001.168.019.346.055.544.1.565.458 1.069 1.031 1.459.318.216.714.397 1.177.538l.085.025.048.071c.105.153.22.327.345.518l.12.185-.181.131a52.045 52.045 0 0 0-3.796 3.024l-.267.236c-.607.536-.836.724-1.036.724l-.043-.001-.034-.01c-.104-.029-.202-.121-.319-.297-.813-1.228-2.165-2.235-3.217-2.396a2.526 2.526 0 0 0-.39-.031c-.719 0-1.236.33-1.495.956-.656 1.583.489 4.576 3.179 6.338.885.58 1.651.874 2.277.874.274 0 .526-.058.747-.173 1.074-.56 1.143-2.3 1.146-2.642l.001-.067.037-.057c1.213-1.868 2.747-3.478 3.986-4.553l.247-.214.143.289c.443.895.867 1.521.87 1.984a1.16 1.16 0 0 1-.005.124c-.012.077-.125.754-.609 1.076a.98.98 0 0 1-.204.104l-.199.074-.106-.178a1.072 1.072 0 0 0-1.359-.412c-.255.115-.446.32-.541.574a.97.97 0 0 0 .041.772c.134.27.39.468.702.542l.212.05-.025.209a.97.97 0 0 0 .092.55c.174.352.549.58.955.58.157 0 .31-.033.452-.098.397-.182.631-.573.597-.997l-.01-.117.771-.664.108.367c.017.056.035.112.062.166.174.352.548.579.955.579.157 0 .31-.033.452-.098a.747.747 0 0 0 .453-.588l.069-.433.341.291c.152.13.333.197.538.197.07 0 .143-.008.218-.024.427-.091.69-.364.72-.749l.033-.42.358.244c.119.082.232.153.34.216l.161.092-.048.173c-.13.466.106.95.56 1.151.137.06.282.091.431.091.401 0 .768-.226.936-.574a.953.953 0 0 0 .083-.538l-.028-.208.212-.052c.303-.076.55-.271.677-.536a.944.944 0 0 0 .032-.753.998.998 0 0 0-.533-.554 1.055 1.055 0 0 0-1.157.206l-.087.085-.123-.016c-.799-.104-1.39-.379-1.807-.839-.812-.896-.72-2.134-.643-3.544l.012-.216.224-.01c.88-.039 5.884.183 6.877.254l.083.006.063.054c.231.198 1.048.842 1.858.842h.001c.158 0 .309-.025.448-.076.727-.264 1.161-1.199 1.292-2.778.194-2.328-1.006-5.527-2.533-5.881zm-19.262 16.09c-.559.497-2.07-.433-3.352-1.757-1.282-1.324-1.869-2.995-1.31-3.493.559-.497 2.053.368 3.335 1.691 1.282 1.326 1.886 3.061 1.327 3.559zm8.72-16.3c.442-.076 1.01.367 1.368 1.228.548 1.318.191 1.694-.792 1.862-.984.168-1.454-.065-1.416-1.484.026-.925.399-1.53.84-1.606zm-4.848 1.456c.179-.91.647-1.45 1.095-1.457.449-.008.936.517 1.147 1.421.322 1.384-.092 1.701-1.092 1.717-.997.016-1.423-.287-1.15-1.681zm6.066 11.458a.644.644 0 0 0-.128.164l-.221.435-.224-.434a30.006 30.006 0 0 0-.582-1.082c-.274-.48-.619-1.871-.839-2.658l-.068-.241.188-.053c.117-.025.249-.052.341-.066a2.8 2.8 0 0 0 .312-.079l.257-.077.059.252c.089.385.271 1.153.472 1.919.166.633.311 1.137.432 1.5l.111.315-.11.105zm-2.33-6.723a7.495 7.495 0 0 1-1.224.029c-1.934-.122-2.672-1.078-2.92-1.548.661-.083 2.285-.283 4.156-.475l1.004-.101c.914-.092 1.865-.187 2.756-.29-.183.635-.913 2.099-3.772 2.385zm12.729 1.678c-.666.118-1.613-1.32-1.892-3.009-.28-1.688-.108-3.265.556-3.383.667-.118 1.575 1.269 1.855 2.959.28 1.688.148 3.315-.519 3.433zm-3.999 13.128l-.362.366.244.807.484.029.219-.314.126.015.265-.631.002-.445-.418-.087-.56.26zm-1.623 4.165l.43.124.476-.407.325-1.05-.65.894-.581.439zm2.177-6.085l-.173-.726-.163-.726-.342.161.312.554.366.737zm-.802.975l-.087-.507-.169.637.256-.13z" fill="#5cb933"/><path d="M12.324 21.726c.031.105.126.464.145.852.018.363-.05.578-.059.711.044.154.113.321.291.182.228-.178.527-.694.461-1.086a6.098 6.098 0 0 0-.838-.659zm9.762 3.777c-.453-.066-.728-.491-.818-.652a1.005 1.005 0 0 1-.411.289l-.036.013c-.15.432.652.805 1.156.679.562-.14.337-.296.109-.329zm-1.212-11.242a3.259 3.259 0 0 0-.04-.306c-.06-.34-.178-.703-.371-.964-.451-.604-.806.418-.868.785-.057.329-.074.788.151 1.072.191.239.681.332.947.162.258-.164.203-.497.181-.749zm-.391.19a.236.236 0 0 1-.237-.236.235.235 0 1 1 .471-.002.236.236 0 0 1-.234.238zm-2.303 1.317c-.197-.121-.371-.538-.421-.666l-.092-.329-.06.062a2.192 2.192 0 0 0-.546.914c.089.114.283.22.283.22v-.001c.222.137.515.174.515.174-.232-.144-.437-.708-.437-.708l-.034-.15.066.088c.144.326.726.396.726.396zm14.166-1.295c-.183-.321-.257-.819-.279-1.013-.07.259-.157.663-.192 1.157.145.267.348.495.519.546.219.064.311-.063.291-.223-.06-.118-.225-.267-.339-.467zm-4.849 9.705c-.129.196-.376.485-.739.542-.227.036-.45.193.113.328.527.126 1.375-.297 1.123-.749a3.805 3.805 0 0 1-.497-.121zm-.632-9.621c.034-.044.078-.105.11-.168a2.249 2.249 0 0 0-.857-.734l.001.254s.003.597-.167.807c0 0 .525-.252.549-.604l.031-.09.02.138s.003.596-.166.807c-.001-.001.333-.164.479-.41zm-3.915-1.528c-.124.296-.148.676-.122 1.02.008.108.021.21.036.307.042.25.07.585.361.687.301.104.754-.098.88-.373.148-.328.018-.769-.118-1.076-.151-.342-.747-1.255-1.037-.565zm.202 1.34a.236.236 0 0 1-.237-.236.235.235 0 1 1 .471-.002.236.236 0 0 1-.234.238z" fill="#173599"/><path d="M30.794 17.022c.72 1.516 2.321 2.418 2.321 2.418-.506-.76-.851-1.708-1.021-3.112-.002.411-.345.505-1.3.694zm-15.899 7.153c.91 1.247 1.453 2.553 1.429 3.547a5.021 5.021 0 0 0 .179-1.265l.001-.067.037-.057c.174-.269.362-.533.555-.793-.149-.408-1.49-1.067-2.201-1.365zm18.323-.423l2.946 3.538.098-.589-2.517-2.784-.527-.165zm5.586.274l-4.145-1.981-.651.022 4.998 2.609-.202-.65zm-27.537 9.295l.096.732 3.291-3.686-.187-.201-3.2 3.155zm3.628.06l.259.395 1.19-2.491-.178-.088-1.271 2.184zm4.943-13.748s1.266.977 3.17.507c2.281-.562 3.17-2.029 3.17-2.029s-2.045 1.295-3.699 1.522c-1.848.254-2.641 0-2.641 0zM8 8" fill="#166a30"/></symbol><symbol viewBox="0 0 48 48" id="icon-137-disabled"><title>EarthCache - disabled</title><circle cx="24" cy="24" r="24" fill="#fff"/><path d="M22.958 23.092c.089-3.201.653-7.191 1.362-9.265V4.978c-4.128 6.792-4.492 17.968-4.448 21.92l3.086-3.806m2.462-10.413c4.564.179 8.526 5.714 8.784 9.617l9.333 1.436.022-.017c-.162-10.312-8.106-18.73-18.139-19.529v8.493m7.668 10.57c-2.739 1.099-7.149 1.486-9.547.881l-3.185 3.926c1.221.265 3.682.692 6.74.692 3.955 0 9.901-.813 15.091-4.099l-9.099-1.4" fill="#ededed"/><path d="M27.096 29.861c-4.545 0-7.739-.89-7.872-.929l-.375-.106-.026-.392c-.043-.648-.714-15.734 4.732-24.321-10.723.167-19.398 9.038-19.398 19.924 0 10.994 8.839 19.934 19.704 19.934 10.514 0 19.131-8.373 19.677-18.872-5.594 3.849-12.14 4.762-16.442 4.762" fill="#cdcdcd"/><path d="M25.42 12.679c4.564.179 8.526 5.714 8.784 9.617l3.668.564c-.24-6.635-5.911-12.835-12.453-13.086v2.905m7.669 10.57c-2.739 1.099-7.149 1.486-9.547.881l-1.207 1.488c4.625 1.156 10.268.498 14.591-1.779l-3.837-.59M24.32 10.901c-1.298 2.676-2.249 7.88-2.369 13.435l1.006-1.244c.089-3.201.653-7.191 1.362-9.265v-2.926" fill="#cdcdcd"/><path d="M4.166 23.684c1.494.045 3.935-3.335 4.023-5.023.092-1.761.733-1.854 1.651-2.041.916-.183 2.566 1.206 3.756.65 1.193-.556 2.659-2.41 2.751-2.874.091-.465.733-2.41-.184-4.266-.68-1.375-.251-3.459.015-4.448C9.222 8.674 4.306 15.6 4.166 23.684m36.82 2.939c-.105 1.15-.814 7.613-3.376 6.965-2.566-.649-6.114-3.066-8.249-1.577-2.657 1.855-.092 3.246-1.191 4.542-1.101 1.299-.366 3.338-.55 4.637-.154 1.093-.827 2.248-1.036 2.587 9.24-1.299 16.443-9.099 16.945-18.672-.83.571-1.682 1.07-2.543 1.518" fill="#9b9b9b"/></symbol><symbol viewBox="0 0 48 48" id="icon-137"><title>EarthCache</title><circle cx="24" cy="24" r="24" fill="#fff"/><path d="M22.958 23.092c.089-3.201.653-7.191 1.362-9.265V4.978c-4.128 6.792-4.492 17.968-4.448 21.92l3.086-3.806m2.462-10.413c4.564.179 8.526 5.714 8.784 9.617l9.333 1.436.022-.017c-.162-10.312-8.106-18.73-18.139-19.529v8.493m7.668 10.57c-2.739 1.099-7.149 1.486-9.547.881l-3.185 3.926c1.221.265 3.682.692 6.74.692 3.955 0 9.901-.813 15.091-4.099l-9.099-1.4" fill="#efdd92"/><path d="M27.096 29.861c-4.545 0-7.739-.89-7.872-.929l-.375-.106-.026-.392c-.043-.648-.714-15.734 4.732-24.321-10.723.167-19.398 9.038-19.398 19.924 0 10.994 8.839 19.934 19.704 19.934 10.514 0 19.131-8.373 19.677-18.872-5.594 3.849-12.14 4.762-16.442 4.762" fill="#a0d4e0"/><path d="M25.42 12.679c4.564.179 8.526 5.714 8.784 9.617l3.668.564c-.24-6.635-5.911-12.835-12.453-13.086v2.905m7.669 10.57c-2.739 1.099-7.149 1.486-9.547.881l-1.207 1.488c4.625 1.156 10.268.498 14.591-1.779l-3.837-.59M24.32 10.901c-1.298 2.676-2.249 7.88-2.369 13.435l1.006-1.244c.089-3.201.653-7.191 1.362-9.265v-2.926" fill="#ffb600"/><path d="M4.166 23.684c1.494.045 3.935-3.335 4.023-5.023.092-1.761.733-1.854 1.651-2.041.916-.183 2.566 1.206 3.756.65 1.193-.556 2.659-2.41 2.751-2.874.091-.465.733-2.41-.184-4.266-.68-1.375-.251-3.459.015-4.448C9.222 8.674 4.306 15.6 4.166 23.684m36.82 2.939c-.105 1.15-.814 7.613-3.376 6.965-2.566-.649-6.114-3.066-8.249-1.577-2.657 1.855-.092 3.246-1.191 4.542-1.101 1.299-.366 3.338-.55 4.637-.154 1.093-.827 2.248-1.036 2.587 9.24-1.299 16.443-9.099 16.945-18.672-.83.571-1.682 1.07-2.543 1.518" fill="#1f5910"/></symbol><symbol viewBox="0 0 48 48" id="icon-1858-disabled"><title>Wherigo Cache - disabled</title><circle cx="24" cy="24" r="24" fill="#fff"/><circle cx="24" cy="24" r="20" fill="#cdcdcd"/><g fill="#fff"><path d="M24.574 12.192c-6.461 0-11.7 5.093-11.7 11.373 0 6.282 5.24 11.374 11.7 11.374 6.462 0 11.701-5.092 11.701-11.374 0-6.28-5.239-11.373-11.701-11.373zm.417 15.812l-5.139-4.998 8.894-3.65-3.755 8.648z"/><path d="M25.21 9.12l-.178 2.669c2.559.149 4.985.994 7.06 2.44l1.677-2.147A16.563 16.563 0 0 0 25.21 9.12zm10.305 4.372a21.778 21.778 0 0 0-.557-.493l-1.884 1.982c.17.143.345.279.51.43.132.123.247.256.372.382l2.057-1.792c-.167-.167-.321-.346-.498-.509zm-.735 3.205c1.61 1.942 2.568 4.221 2.847 6.556l.564-.039c-.338-2.584-1.397-4.572-3.097-6.282l-.314-.235zm3.516 7.793l-.582-.015c.007.399-.001.798-.032 1.196l.6.068c.025-.42.028-.835.014-1.249zm-4.102 8.81l.582.549a12.802 12.802 0 0 0 3.367-6.835l-.616-.127a12.206 12.206 0 0 1-3.333 6.413zm-1.896 1.592l.489.672c.354-.247.695-.514 1.024-.799l-.537-.615c-.313.265-.64.509-.976.742zm-7.372 2.332c-.3.004-.596-.014-.892-.028l-.054 1.108c2.696-.005 5.375-.694 7.679-2.02l-.425-.733a13.457 13.457 0 0 1-6.308 1.673zm-3.703.844c.45.08.901.138 1.354.176l.178-1.169a15.336 15.336 0 0 1-1.225-.224l-.307 1.217zm-7.021-5.674l-1.366 1.034a14.538 14.538 0 0 0 3.147 2.652 14.526 14.526 0 0 0 3.872 1.682l.453-1.255a13.61 13.61 0 0 1-4.995-2.938c-.404-.373-.767-.77-1.111-1.175zM12.806 30.4l-1.608.795c.232.389.483.77.752 1.138l1.497-.92a12.104 12.104 0 0 1-.641-1.013zm-1.467-8.12l-2.112-.373a14.684 14.684 0 0 0 1.312 8.057l1.713-.659a12.417 12.417 0 0 1-.913-7.025zm.629-2.341l-2.117-.798c-.148.447-.274.898-.377 1.352l2.123.587c.105-.385.229-.766.371-1.141zm2.844-4.381a13.056 13.056 0 0 1 6.479-3.491l-.576-2.439c-3.85.957-7.342 3.146-9.428 6.464a14.425 14.425 0 0 0-.91 1.705l2.084 1.017a12.365 12.365 0 0 1 2.351-3.256zm7.396-6.235l.336 2.536c.406-.049.816-.077 1.231-.09l-.093-2.627c-.493.039-.985.099-1.474.181z"/></g></symbol><symbol viewBox="0 0 48 48" id="icon-1858"><title>Wherigo Cache</title><circle cx="23.997" cy="24" r="24" fill="#fff"/><circle cx="23.997" cy="24" r="20" fill="#12508c"/><g fill="#fff"><path d="M24.571 12.192c-6.461 0-11.7 5.093-11.7 11.373 0 6.282 5.24 11.374 11.7 11.374 6.462 0 11.701-5.092 11.701-11.374-.001-6.28-5.239-11.373-11.701-11.373zm.417 15.812l-5.139-4.998 8.894-3.65-3.755 8.648z"/><path d="M25.206 9.12l-.178 2.669c2.559.149 4.985.994 7.06 2.44l1.677-2.147a16.56 16.56 0 0 0-8.559-2.962zm10.306 4.372a21.778 21.778 0 0 0-.557-.493l-1.884 1.982c.17.143.345.279.51.43.132.123.247.256.372.382l2.057-1.792c-.168-.167-.321-.346-.498-.509zm-.735 3.205c1.61 1.942 2.568 4.221 2.847 6.556l.564-.039c-.338-2.584-1.397-4.572-3.097-6.282l-.314-.235zm3.516 7.793l-.582-.015c.007.399-.001.798-.032 1.196l.6.068c.024-.42.027-.835.014-1.249zM34.19 33.3l.582.549a12.802 12.802 0 0 0 3.367-6.835l-.616-.127A12.192 12.192 0 0 1 34.19 33.3zm-1.895 1.592l.489.672c.354-.247.695-.514 1.024-.799l-.538-.615a12.71 12.71 0 0 1-.975.742zm-7.373 2.332c-.3.004-.596-.014-.892-.028l-.054 1.108c2.696-.005 5.375-.694 7.679-2.02l-.425-.733a13.454 13.454 0 0 1-6.308 1.673zm-3.703.844c.45.08.901.138 1.354.176l.178-1.169a15.336 15.336 0 0 1-1.225-.224l-.307 1.217zm-7.021-5.674l-1.366 1.034a14.538 14.538 0 0 0 3.147 2.652 14.526 14.526 0 0 0 3.872 1.682l.453-1.255a13.61 13.61 0 0 1-4.995-2.938c-.403-.373-.766-.77-1.111-1.175zM12.802 30.4l-1.608.795c.232.389.483.77.752 1.138l1.497-.92a12.368 12.368 0 0 1-.641-1.013zm-1.466-8.12l-2.112-.373a14.684 14.684 0 0 0 1.312 8.057l1.713-.659a12.408 12.408 0 0 1-.913-7.025zm.628-2.341l-2.117-.798c-.148.447-.274.898-.377 1.352l2.123.587c.106-.385.23-.766.371-1.141zm2.845-4.381a13.056 13.056 0 0 1 6.479-3.491l-.576-2.439c-3.85.957-7.342 3.146-9.428 6.464a14.425 14.425 0 0 0-.91 1.705l2.084 1.017a12.365 12.365 0 0 1 2.351-3.256zm7.395-6.235l.336 2.536a13.87 13.87 0 0 1 1.231-.089l-.093-2.627c-.493.038-.984.098-1.474.18z"/></g></symbol><symbol viewBox="0 0 48 48" id="icon-2-disabled"><title>Traditional Cache - disabled</title><circle cx="24" cy="24" r="24" fill="#fff"/><circle cx="24" cy="24" r="20" fill="#cdcdcd"/><path d="M37.43 16.444a.435.435 0 0 0-.429-.441c-.409-.01-11.518.006-11.518.006l-15.117 3.683s-.367.092-.367.736v1.919c0 .708.613.662.613.662l.237.049v6.693c0 1.659 1.138 3.017 2.561 3.017h8.58c.425 0 .819-.133 1.174-.345l.005.015 11.092-4.594c2.279-1.027 2.36-1.854 2.319-3.492 0-.193-.009-.404-.009-.635V18.63c.169-.06.601-.101.61-.11.006-.004.257-.092.257-.423 0-.401-.008-1.221-.008-1.653zM21.588 30.988h-7.749c-.696 0-1.259-.744-1.259-1.66v-6.269h10.268v6.269c0 .915-.564 1.66-1.26 1.66zm13.276-6.963c.03 1.31-.12 1.587-1.535 2.216l-8.814 3.707c.03-.193.049-.391.049-.593l.006-6.297s.658-.373.857-.441c1.846-.633 6.784-2.412 9.424-3.365v4.105c0 .244.005.466.013.668z" fill="#fff"/></symbol><symbol viewBox="0 0 48 48" id="icon-2"><title>Traditional Cache</title><circle cx="24" cy="24" r="24" fill="#fff"/><circle cx="24" cy="24" r="20" fill="#02874d"/><path d="M37.43 16.444a.435.435 0 0 0-.429-.441c-.409-.01-11.518.006-11.518.006l-15.117 3.683s-.367.092-.367.736v1.919c0 .708.613.662.613.662l.237.049v6.693c0 1.659 1.138 3.017 2.561 3.017h8.58c.425 0 .819-.133 1.174-.345l.005.015 11.092-4.594c2.279-1.027 2.36-1.854 2.319-3.492 0-.193-.009-.404-.009-.635V18.63c.169-.06.601-.101.61-.11.006-.004.257-.092.257-.423 0-.401-.008-1.221-.008-1.653zM21.588 30.988h-7.749c-.696 0-1.259-.744-1.259-1.66v-6.269h10.268v6.269c0 .915-.564 1.66-1.26 1.66zm13.276-6.963c.03 1.31-.12 1.587-1.535 2.216l-8.814 3.707c.03-.193.049-.391.049-.593l.006-6.297s.658-.373.857-.441c1.846-.633 6.784-2.412 9.424-3.365v4.105c0 .244.005.466.013.668z" fill="#fff"/></symbol><symbol viewBox="0 0 48 48" id="icon-3-disabled"><title>Multi-Cache - disabled</title><circle cx="24" cy="24" r="24" fill="#fff"/><circle cx="24" cy="24" r="20" fill="#cdcdcd"/><path d="M31.532 20.961a372.68 372.68 0 0 0-2.624-.005c-2.709 0-6.372.005-6.372.005l-12.061 2.285s-.294.07-.294.568v.918c0 .484.375.514.467.514h.02l.379.045v5.437c0 1.296.924 2.348 2.057 2.348h6.557c.339 0 .656-.105.937-.271l.005.013 8.463-3.065c1.822-.794 1.857-1.541 1.857-2.709l-.003-4.345c.137-.051.59-.064.596-.073.004-.005.226-.073.226-.328V21.21c.002-.177-.2-.249-.21-.249zM18.688 31.333h-4.92c-.55 0-.991-.56-.991-1.276v-4.766h6.912l.003 4.747c0 .717-.452 1.295-1.004 1.295zm10.516-4.883c-.011.569-.095 1.231-1.223 1.72l-6.616 2.264s.051-.231.051-.391v-4.752l7.776-2.121c.004.318.025 2.604.012 3.28zm8.326-10.293l-12.657-1.234s-8.969 1.323-9.291 1.361c-.01 0-.206.095-.21.28v1.416c0 .263.216.309.217.313.013.006.519.03.652.07l.238.016h-.247l.003 1.632 1.732-.232-.006-1.298 10.472.717s.766.035 1.225.035c.118 0 .215-.003.274-.009 2.237-.215 4.047-.436 5.319-.607l-.005 4.035c0 .725-.447.837-.995.888l-1.627.309c.001.162.003.211.009.353.005.218.007.905.001 1.092l2.293-.309c1.122-.102 2.032-1.253 2.032-2.561l.01-4.053.364-.057s.484-.01.484-.566c0-.274 0-.747.003-1.04-.001-.506-.29-.551-.29-.551z" fill="#fff"/></symbol><symbol viewBox="0 0 48 48" id="icon-3"><title>Multi-Cache</title><circle cx="24.003" cy="24" r="24" fill="#fff"/><circle cx="24.003" cy="24" r="20" fill="#e98300"/><path d="M31.536 20.961a372.68 372.68 0 0 0-2.624-.005c-2.709 0-6.372.005-6.372.005l-12.061 2.285s-.294.07-.294.568v.918c0 .484.375.514.467.514h.02l.379.045v5.437c0 1.296.924 2.348 2.057 2.348h6.557c.339 0 .656-.105.937-.271l.005.013 8.463-3.065c1.822-.794 1.857-1.541 1.857-2.709l-.003-4.345c.137-.051.59-.064.596-.073.004-.005.226-.073.226-.328V21.21c.001-.177-.2-.249-.21-.249zM18.691 31.333h-4.92c-.55 0-.991-.56-.991-1.276v-4.766h6.912l.003 4.747c0 .717-.452 1.295-1.004 1.295zm10.517-4.883c-.011.569-.095 1.231-1.223 1.72l-6.616 2.264s.051-.231.051-.391v-4.752l7.776-2.121c.003.318.025 2.604.012 3.28zm8.325-10.293l-12.657-1.234s-8.969 1.323-9.291 1.361c-.01 0-.206.095-.21.28v1.416c0 .263.216.309.217.313.013.006.519.03.652.07l.238.016h-.247l.003 1.632 1.732-.232-.006-1.298 10.472.717s.766.035 1.225.035c.118 0 .215-.003.274-.009 2.237-.215 4.047-.436 5.319-.607l-.005 4.035c0 .725-.447.837-.995.888l-1.627.309c.001.162.003.211.009.353.005.218.007.905.001 1.092l2.293-.309c1.122-.102 2.032-1.253 2.032-2.561l.01-4.053.364-.057s.484-.01.484-.566c0-.274 0-.747.003-1.04-.001-.506-.29-.551-.29-.551z" fill="#fff"/></symbol><symbol viewBox="0 0 24 24" id="icon-3653-disabled"><title>Community Celebration Event - disabled</title>  <rect width="24" height="24" style="fill:none"/> <circle cx="12" cy="12" r="12" style="fill:#fff"/> <circle cx="12" cy="12" r="10" style="fill:#cdcdcd"/> <path d="M9.68,12a.82.82,0,0,1,.44,0,.79.79,0,0,1,.52.49.76.76,0,0,1-.48.95A.75.75,0,0,1,9.21,13a.77.77,0,0,1,.43-1ZM7.22,14.39a2.32,2.32,0,0,0,.8.18,2.93,2.93,0,0,0,1-.09,1,1,0,0,0-.87-.7A.89.89,0,0,0,7.22,14.39Zm2.31-3.5L8.71,10a.59.59,0,0,0-.08.84.6.6,0,0,0,.71.15A.78.78,0,0,0,9.53,10.89Zm8.32-3.51H15.28l-.08,8.14h2ZM6.37,17.52h8.16l.1-1.68H6.28Zm.82-5.07a.54.54,0,0,0,.62.2.58.58,0,0,0,.36-.72.56.56,0,0,0-.39-.36.47.47,0,0,0-.33,0,.56.56,0,0,0-.17.09Zm7.87,5.12,2.17.08.07-1.84H15.06Zm-7.28-7.2A.36.36,0,0,0,8,9.91H8a.37.37,0,0,0-.24-.23.28.28,0,0,0-.22,0h0l-.08.61A.35.35,0,0,0,7.78,10.37ZM15,7.26l-.31,8.23H6.22L5.73,7ZM9.5,14.58a4.08,4.08,0,0,0,1.56-.87,1.85,1.85,0,0,0,.4-.52.7.7,0,0,0,0-.53h0L8,9,8.15,9V8.67l.15-.22-.15-.21V8l-.26-.08L7.73,7.7l-.25.08L7.2,7.67l-.15.22L6.79,8v.27l-.16.22.16.21V9l.26,0,.16.22.15-.05-.62,5C6.72,14.33,7.52,15.18,9.5,14.58Zm2.62-6.45A2.44,2.44,0,0,0,9.6,10.34l.3.32h0A2.73,2.73,0,0,1,10.65,9l.56-.12a3.1,3.1,0,0,0-1,2.11l1.44,1.49h0a.24.24,0,0,1,.06.11.92.92,0,0,1-.06.69,1.89,1.89,0,0,1-.45.6l-.2.17a1.62,1.62,0,0,0,.75.43l-.11.17v.08H12s.06-.05.05-.08l-.1-.19c1-.08,2.6-2.14,2.6-3.47C14.5,9.34,13.67,8.13,12.12,8.13Z" style="fill:#fff"/></symbol><symbol viewBox="0 0 24 24" id="icon-3653"><title>Community Celebration Event</title>  <rect width="24" height="24" fill="none"/> <circle cx="12" cy="12" r="12" fill="#FFFFFF"/> <circle cx="12" cy="12" r="10" fill="#8F1A1D"/> <path d="M9.7,12c0.1,0,0.3,0,0.4,0c0.2,0.1,0.4,0.3,0.5,0.5c0.1,0.4-0.1,0.8-0.5,0.9c-0.4,0.1-0.8-0.1-0.9-0.4
	C9.1,12.6,9.2,12.2,9.7,12C9.7,12,9.7,12,9.7,12z M7.2,14.4c0,0,0.3,0.2,0.8,0.2c0.5,0,1-0.1,1-0.1c-0.1-0.4-0.5-0.7-0.9-0.7
	C7.6,13.8,7.3,14.1,7.2,14.4z M9.5,10.9L8.7,10c-0.3,0.2-0.3,0.6-0.1,0.8c0.2,0.2,0.5,0.3,0.7,0.1C9.4,11,9.5,10.9,9.5,10.9z
	 M17.8,7.4h-2.6l-0.1,8.1h2L17.8,7.4z M6.4,17.5h8.2l0.1-1.7H6.3L6.4,17.5z M7.2,12.5c0.1,0.2,0.4,0.3,0.6,0.2
	c0.3-0.1,0.5-0.4,0.4-0.7c-0.1-0.2-0.2-0.3-0.4-0.4c-0.1,0-0.2,0-0.3,0c-0.1,0-0.1,0.1-0.2,0.1L7.2,12.5z M15.1,17.6l2.2,0.1
	l0.1-1.8h-2.2L15.1,17.6z M7.8,10.4C8,10.3,8.1,10.1,8,9.9c0,0,0,0,0,0c0-0.1-0.1-0.2-0.2-0.2c-0.1,0-0.1,0-0.2,0l0,0l-0.1,0.6
	C7.5,10.4,7.7,10.4,7.8,10.4z M15,7.3l-0.3,8.2H6.2L5.7,7L15,7.3z M9.5,14.6c0.6-0.2,1.1-0.5,1.6-0.9c0.2-0.1,0.3-0.3,0.4-0.5
	c0.1-0.2,0.1-0.4,0-0.5l0,0L8,9l0.1-0.1V8.7l0.1-0.2L8.1,8.2V8L7.9,7.9L7.7,7.7L7.5,7.8L7.2,7.7L7,7.9L6.8,8v0.3L6.6,8.5l0.2,0.2V9
	l0.3,0l0.2,0.2l0.2-0.1c0,0-0.6,4.8-0.6,5S7.5,15.2,9.5,14.6z M12.1,8.1c-1.6,0-2.5,1.2-2.5,2.2l0.3,0.3l0,0C10,10,10.2,9.5,10.6,9
	l0.6-0.1c-0.6,0.5-1,1.3-1,2.1l1.4,1.5l0,0c0,0,0.1,0.1,0.1,0.1c0.1,0.2,0,0.5-0.1,0.7c-0.1,0.2-0.3,0.4-0.4,0.6L11,14
	c0.2,0.2,0.5,0.4,0.8,0.4l-0.1,0.2v0.1H12c0,0,0.1-0.1,0.1-0.1l-0.1-0.2c1-0.1,2.6-2.1,2.6-3.5C14.5,9.3,13.7,8.1,12.1,8.1z" fill="#FFFFFF"/> </symbol><symbol viewBox="0 0 24 24" id="icon-3773-disabled"><title>Geocaching HQ - disabled</title><g fill="none" fill-rule="evenodd"><circle fill="#FFF" cx="12" cy="12" r="12"/><circle fill="#CDCDCD" cx="12" cy="12" r="10"/><path fill="#FFF" d="M9.59 8.186v2.72H7.15v-2.72H5.915v6.775H7.15v-2.838h2.438v2.838h1.237V8.186zm8.198 5.796l1.15 1.508h-1.49l-.584-.763a3.27 3.27 0 0 1-1.616.403c-.993 0-1.819-.347-2.476-1.041a3.485 3.485 0 0 1-.986-2.482c0-.64.153-1.23.46-1.766a3.442 3.442 0 0 1 1.261-1.278 3.337 3.337 0 0 1 1.725-.474c.939 0 1.745.343 2.418 1.03s1.01 1.524 1.01 2.511c0 .908-.29 1.692-.872 2.352z"/><path d="M17.001 12.951c.267-.4.4-.844.4-1.33 0-.635-.212-1.175-.634-1.618a2.043 2.043 0 0 0-1.535-.665c-.618 0-1.135.215-1.552.647-.417.431-.626.98-.626 1.645 0 .741.263 1.328.788 1.759a2.15 2.15 0 0 0 1.4.506c.3 0 .583-.06.847-.178l-1.184-1.545h1.502l.594.78z" fill="#CDCDCD"/></g></symbol><symbol viewBox="0 0 24 24" id="icon-3773"><title>Geocaching HQ</title><g fill="none" fill-rule="evenodd"><circle fill="#FFF" cx="12" cy="12" r="12"/><circle fill="#00B265" cx="12" cy="12" r="10"/><path fill="#FFF" d="M9.59 8.186v2.72H7.15v-2.72H5.915v6.775H7.15v-2.838h2.438v2.838h1.237V8.186zm8.198 5.796l1.15 1.508h-1.49l-.584-.763a3.27 3.27 0 0 1-1.616.403c-.993 0-1.819-.347-2.476-1.041a3.485 3.485 0 0 1-.986-2.482c0-.64.153-1.23.46-1.766a3.442 3.442 0 0 1 1.261-1.278 3.337 3.337 0 0 1 1.725-.474c.939 0 1.745.343 2.418 1.03s1.01 1.524 1.01 2.511c0 .908-.29 1.692-.872 2.352z"/><path d="M17.001 12.951c.267-.4.4-.844.4-1.33 0-.635-.212-1.175-.634-1.618a2.043 2.043 0 0 0-1.535-.665c-.618 0-1.135.215-1.552.647-.417.431-.626.98-.626 1.645 0 .741.263 1.328.788 1.759a2.15 2.15 0 0 0 1.4.506c.3 0 .583-.06.847-.178l-1.184-1.545h1.502l.594.78z" fill="#00B265"/></g></symbol><symbol viewBox="0 0 24 24" id="icon-3774-disabled"><title>Geocaching HQ Celebration - disabled</title>  <rect width="24" height="24" style="fill:none"/> <circle cx="12" cy="12" r="12" style="fill:#fff"/> <circle cx="12" cy="12" r="10" style="fill:#cdcdcd"/> <polygon points="9.76 10.91 7.15 10.91 7.15 8.19 5.91 8.19 5.91 14.96 7.15 14.96 7.15 12.12 9.76 12.12 9.76 10.91" style="fill:#fff"/> <polygon points="9.35 8.19 8.72 9.39 9.59 9.39 9.59 14.96 10.83 14.96 10.83 8.19 9.35 8.19" style="fill:#ffc642"/> <path d="M15.22,8.12a3.4,3.4,0,0,1,3.44,3.52,3.44,3.44,0,1,1-6.87,0A3.39,3.39,0,0,1,15.22,8.12Zm0,5.77a2.13,2.13,0,0,0,2.13-2.25,2.14,2.14,0,1,0-4.27,0A2.14,2.14,0,0,0,15.23,13.89Z" style="fill:#ffc642"/> <polygon points="16.4 12.17 14.9 12.17 17.45 15.51 18.94 15.51 16.4 12.17" style="fill:#fff"/> </symbol><symbol viewBox="0 0 24 24" id="icon-3774"><title>Geocaching HQ Celebration</title>  <rect width="24" height="24" fill="none"/> <circle cx="12" cy="12" r="12" fill="#FFFFFF"/> <circle cx="12" cy="12" r="10" fill="#12B265"/> <polygon points="9.6,10.9 7.2,10.9 7.2,8.2 5.9,8.2 5.9,15 7.2,15 7.2,12.1 9.6,12.1 " fill="#FFFFFF"/> <polygon points="9.3,8.2 8.7,9.4 9.6,9.4 9.6,15 10.8,15 10.8,8.2 " fill="#FFC642"/> <g> <path d="M15.2,8.1c2,0,3.4,1.5,3.4,3.5c0,2-1.5,3.5-3.4,3.5c-2,0-3.4-1.5-3.4-3.5C11.8,9.6,13.3,8.1,15.2,8.1z
		 M15.2,13.9c1.3,0,2.1-1,2.1-2.2c0-1.3-0.9-2.2-2.1-2.2c-1.2,0-2.1,1-2.1,2.2C13.1,12.9,14,13.9,15.2,13.9z" fill="#FFC642"/> </g> <polygon points="16.4,12.2 14.9,12.2 17.5,15.5 18.9,15.5 " fill="#FFFFFF"/> </symbol><symbol viewBox="0 0 48 48" id="icon-4-disabled"><title>Virtual Cache - disabled</title><circle cx="24" cy="24" r="24" fill="#fff"/><circle cx="24" cy="24" r="20" fill="#cdcdcd"/><path d="M31.507 19.387c0 .104.005-.104 0 0zm.631 9.216c3.473-3.267 4.14-8.031 2.599-8.414-1.088-.27-1.667.708-3.201 2-.029-1.061-.029-1.932-.029-2.802 0-4.316-2.201-8.022-7.234-8.022s-7.333 3.55-7.333 8.241c.003.09-.111 1.392-.214 2.797-1.734-1.396-2.315-2.5-3.463-2.215-1.615.401-.807 5.616 3.116 8.875l.088.041c-.109 1.722-.323 3.37-.73 4.564-1.432 4.192 3.726 1.362 4.87 1.362 1.312 0 2.598 1.586 4.441 1.604 1.935.019 2.067-1.081 4.037-1.604 1.232-.327 5.606 3.122 4.037-2.407a52.134 52.134 0 0 1-.984-4.02zm-11.531-8.815c0-1.108.542-2.006 1.211-2.006s1.211.898 1.211 2.006c0 1.107-.542 2.006-1.211 2.006s-1.211-.898-1.211-2.006zm3.633 5.558c-.988 0-2.091-.84-2.091-1.504 0-.665 1.103.201 2.091.201s2.019-.908 2.019-.243-1.031 1.546-2.019 1.546zm2.422-3.552c-.669 0-1.211-.898-1.211-2.006 0-1.108.542-2.006 1.211-2.006s1.211.898 1.211 2.006c.001 1.108-.542 2.006-1.211 2.006z" fill="#fff"/></symbol><symbol viewBox="0 0 48 48" id="icon-4"><title>Virtual Cache</title><circle cx="24" cy="24" r="24" fill="#fff"/><circle cx="24" cy="24" r="20" fill="#009bbb"/><path d="M31.507 19.387c0 .104.005-.104 0 0zm.631 9.216c3.473-3.267 4.14-8.031 2.599-8.414-1.088-.27-1.667.708-3.201 2-.029-1.061-.029-1.932-.029-2.802 0-4.316-2.201-8.022-7.234-8.022s-7.333 3.55-7.333 8.241c.003.09-.111 1.392-.214 2.797-1.734-1.396-2.315-2.5-3.463-2.215-1.615.401-.807 5.616 3.116 8.875l.088.041c-.109 1.722-.323 3.37-.73 4.564-1.432 4.192 3.726 1.362 4.87 1.362 1.312 0 2.598 1.586 4.441 1.604 1.935.019 2.067-1.081 4.037-1.604 1.232-.327 5.606 3.122 4.037-2.407a52.134 52.134 0 0 1-.984-4.02zm-11.531-8.815c0-1.108.542-2.006 1.211-2.006s1.211.898 1.211 2.006c0 1.107-.542 2.006-1.211 2.006s-1.211-.898-1.211-2.006zm3.633 5.558c-.988 0-2.091-.84-2.091-1.504 0-.665 1.103.201 2.091.201s2.019-.908 2.019-.243-1.031 1.546-2.019 1.546zm2.422-3.552c-.669 0-1.211-.898-1.211-2.006 0-1.108.542-2.006 1.211-2.006s1.211.898 1.211 2.006c.001 1.108-.542 2.006-1.211 2.006z" fill="#fff"/></symbol><symbol viewBox="0 0 48 48" id="icon-453-disabled"><title>Mega-Event - disabled</title><ellipse cx="24" cy="24" rx="24" ry="24" fill="#fff"/><ellipse cx="24" cy="24" rx="20" ry="20" fill="#cdcdcd"/><path d="M8.007 20.332h2.403l1.66 4.421 1.69-4.421h2.393v6.775h-1.588v-5.196l-1.914 5.196h-1.212l-1.822-5.196-.02 5.196h-1.59v-6.775zm10.096 0H23v1.378h-3.309v1.263h3.126v1.378h-3.126v1.378h3.492v1.378h-5.08v-6.775zm13.304 6.297c-.468.23-.957.396-1.466.498a7.907 7.907 0 0 1-1.558.153 4.696 4.696 0 0 1-1.558-.249 3.619 3.619 0 0 1-1.232-.713 3.223 3.223 0 0 1-.809-1.124 3.63 3.63 0 0 1-.29-1.474c0-.542.097-1.034.29-1.474.193-.44.463-.815.809-1.124a3.619 3.619 0 0 1 1.232-.713 4.692 4.692 0 0 1 1.558-.249c.577 0 1.108.065 1.593.196.485.131.911.356 1.278.675l-1.12 1.148a2.226 2.226 0 0 0-.733-.478c-.271-.108-.611-.163-1.018-.163a2.48 2.48 0 0 0-.921.163c-.275.108-.511.26-.708.455a1.98 1.98 0 0 0-.453.694 2.366 2.366 0 0 0-.158.871c0 .319.053.611.158.876.105.265.256.494.453.689s.433.346.708.455a2.5 2.5 0 0 0 .921.163 3.232 3.232 0 0 0 1.497-.335v-1.101h-1.293V23.09h2.82v3.539zm4.191-6.297h1.313l3.136 6.775h-1.792l-.621-1.435h-2.8l-.601 1.435h-1.751l3.116-6.775zm.611 1.972l-.876 2.105h1.761l-.885-2.105z" fill="#fff"/><path d="M8 20.172h2.403l1.66 4.421 1.69-4.421h2.393v6.775h-1.588v-5.196l-1.914 5.196h-1.212L9.61 21.751l-.02 5.196H8v-6.775zm10.096 0h4.897v1.378h-3.309v1.263h3.126v1.378h-3.126v1.378h3.492v1.378h-5.08v-6.775zM31.4 26.469c-.468.23-.957.396-1.466.498s-1.028.153-1.558.153a4.696 4.696 0 0 1-1.558-.249 3.619 3.619 0 0 1-1.232-.713 3.223 3.223 0 0 1-.809-1.124 3.63 3.63 0 0 1-.29-1.474c0-.542.097-1.034.29-1.474.193-.44.463-.815.809-1.124a3.619 3.619 0 0 1 1.232-.713A4.692 4.692 0 0 1 28.376 20c.577 0 1.108.065 1.593.196.485.131.911.356 1.278.675l-1.12 1.148c-.217-.211-.462-.37-.733-.478s-.611-.163-1.018-.163a2.48 2.48 0 0 0-.921.163c-.275.108-.511.26-.708.455a1.98 1.98 0 0 0-.453.694 2.366 2.366 0 0 0-.158.871c0 .319.053.611.158.876.105.265.256.494.453.689.197.195.433.346.708.455a2.5 2.5 0 0 0 .921.163 3.232 3.232 0 0 0 1.497-.335v-1.101H28.58V22.93h2.82v3.539zm4.191-6.297h1.313l3.136 6.775h-1.792l-.621-1.435h-2.8l-.601 1.435h-1.751l3.116-6.775zm.611 1.972l-.876 2.105h1.761l-.885-2.105z" fill="#fff"/></symbol><symbol viewBox="0 0 10 10" id="icon-453-simple"><title>Mega</title><path d="M2 2h1.778l1.185 3.912L6.223 2H8v6H6.86V3.398L5.377 8h-.83L3.2 3.398V8H2" fill="currentColor" fill-rule="evenodd"/></symbol><symbol viewBox="0 0 48 48" id="icon-453"><title>Mega-Event</title><ellipse cx="24" cy="24" rx="24" ry="24" fill="#fff"/><ellipse cx="24" cy="24" rx="20" ry="20" fill="#90040b"/><path d="M8.007 20.332h2.403l1.66 4.421 1.69-4.421h2.393v6.775h-1.588v-5.196l-1.914 5.196h-1.212l-1.822-5.196-.02 5.196h-1.59v-6.775zm10.096 0H23v1.378h-3.309v1.263h3.126v1.378h-3.126v1.378h3.492v1.378h-5.08v-6.775zm13.304 6.297c-.468.23-.957.396-1.466.498a7.907 7.907 0 0 1-1.558.153 4.696 4.696 0 0 1-1.558-.249 3.619 3.619 0 0 1-1.232-.713 3.223 3.223 0 0 1-.809-1.124 3.63 3.63 0 0 1-.29-1.474c0-.542.097-1.034.29-1.474.193-.44.463-.815.809-1.124a3.619 3.619 0 0 1 1.232-.713 4.692 4.692 0 0 1 1.558-.249c.577 0 1.108.065 1.593.196.485.131.911.356 1.278.675l-1.12 1.148a2.226 2.226 0 0 0-.733-.478c-.271-.108-.611-.163-1.018-.163a2.48 2.48 0 0 0-.921.163c-.275.108-.511.26-.708.455a1.98 1.98 0 0 0-.453.694 2.366 2.366 0 0 0-.158.871c0 .319.053.611.158.876.105.265.256.494.453.689s.433.346.708.455a2.5 2.5 0 0 0 .921.163 3.232 3.232 0 0 0 1.497-.335v-1.101h-1.293V23.09h2.82v3.539zm4.191-6.297h1.313l3.136 6.775h-1.792l-.621-1.435h-2.8l-.601 1.435h-1.751l3.116-6.775zm.611 1.972l-.876 2.105h1.761l-.885-2.105z" fill="#fff"/><path d="M8 20.172h2.403l1.66 4.421 1.69-4.421h2.393v6.775h-1.588v-5.196l-1.914 5.196h-1.212L9.61 21.751l-.02 5.196H8v-6.775zm10.096 0h4.897v1.378h-3.309v1.263h3.126v1.378h-3.126v1.378h3.492v1.378h-5.08v-6.775zM31.4 26.469c-.468.23-.957.396-1.466.498s-1.028.153-1.558.153a4.696 4.696 0 0 1-1.558-.249 3.619 3.619 0 0 1-1.232-.713 3.223 3.223 0 0 1-.809-1.124 3.63 3.63 0 0 1-.29-1.474c0-.542.097-1.034.29-1.474.193-.44.463-.815.809-1.124a3.619 3.619 0 0 1 1.232-.713A4.692 4.692 0 0 1 28.376 20c.577 0 1.108.065 1.593.196.485.131.911.356 1.278.675l-1.12 1.148c-.217-.211-.462-.37-.733-.478s-.611-.163-1.018-.163a2.48 2.48 0 0 0-.921.163c-.275.108-.511.26-.708.455a1.98 1.98 0 0 0-.453.694 2.366 2.366 0 0 0-.158.871c0 .319.053.611.158.876.105.265.256.494.453.689.197.195.433.346.708.455a2.5 2.5 0 0 0 .921.163 3.232 3.232 0 0 0 1.497-.335v-1.101H28.58V22.93h2.82v3.539zm4.191-6.297h1.313l3.136 6.775h-1.792l-.621-1.435h-2.8l-.601 1.435h-1.751l3.116-6.775zm.611 1.972l-.876 2.105h1.761l-.885-2.105z" fill="#fff"/></symbol><symbol viewBox="0 0 24 24" id="icon-4738-disabled"><title>Geocaching HQ Block Party - disabled</title>  <rect width="24" height="24" style="fill:none"/> <circle cx="12" cy="12" r="12" style="fill:#fff"/> <circle cx="12" cy="12" r="10" style="fill:#cdcdcd"/> <path d="M6.34,16l1.43,1.43V8.13L6.34,6.69ZM16,6.34H6.69L8.13,7.77h9.3Zm-5.12,3.78a.29.29,0,0,1,.3-.29.3.3,0,1,1,0,.59A.29.29,0,0,1,10.88,10.12ZM8.46,8.46v9.31h9.31V8.46Zm4.39,7.23a2.53,2.53,0,0,1-1.33-.54l-.41.42a3.14,3.14,0,0,0,1.74.7v.67H9.29V13.39H10a3.16,3.16,0,0,0,.72,1.74l.41-.41a2.63,2.63,0,0,1-.55-1.33h2.31Zm0-2.84H10.54a2.51,2.51,0,0,1,.64-1.67A2,2,0,0,1,12,12.4h.59a2.26,2.26,0,0,0-1-1.48,1.59,1.59,0,0,0,.69-1.19H12a1.39,1.39,0,0,1-.79,1c-.66-.39-.76-.73-.79-1h-.23a1.51,1.51,0,0,0,.69,1.19A3.15,3.15,0,0,0,10,12.85H9.29V9.29h3.56Zm4.09,4.09h-2.1l-.41-1.66a1,1,0,0,1,.75-.35,1.08,1.08,0,0,0,.91-.79,2,2,0,0,1-1-.08,1.7,1.7,0,0,0-.95,0,.64.64,0,0,0-.29.16l.67,2.69H13.39V13.39h3.55Zm0-4.09h-.67a3.14,3.14,0,0,0-.7-1.74l-.42.41a2.53,2.53,0,0,1,.54,1.33h-2.3V10.54a2.63,2.63,0,0,1,1.33.55l.41-.41A3.16,3.16,0,0,0,13.39,10V9.29h3.55Z" style="fill:#fff"/> </symbol><symbol viewBox="0 0 24 24" id="icon-4738"><title>Geocaching HQ Block Party</title>  <rect width="24" height="24" style="fill:none"/> <circle cx="12" cy="12" r="12" style="fill:#fff"/> <circle cx="12" cy="12" r="10" style="fill:#12b265"/> <path d="M6.34,16l1.43,1.43V8.13L6.34,6.69ZM16,6.34H6.69L8.13,7.77h9.3Zm-5.12,3.78a.29.29,0,0,1,.3-.29.3.3,0,1,1,0,.59A.29.29,0,0,1,10.88,10.12ZM8.46,8.46v9.31h9.31V8.46Zm4.39,7.23a2.53,2.53,0,0,1-1.33-.54l-.41.42a3.14,3.14,0,0,0,1.74.7v.67H9.29V13.39H10a3.16,3.16,0,0,0,.72,1.74l.41-.41a2.63,2.63,0,0,1-.55-1.33h2.31Zm0-2.84H10.54a2.51,2.51,0,0,1,.64-1.67A2,2,0,0,1,12,12.4h.59a2.26,2.26,0,0,0-1-1.48,1.59,1.59,0,0,0,.69-1.19H12a1.39,1.39,0,0,1-.79,1c-.66-.39-.76-.73-.79-1h-.23a1.51,1.51,0,0,0,.69,1.19A3.15,3.15,0,0,0,10,12.85H9.29V9.29h3.56Zm4.09,4.09h-2.1l-.41-1.66a1,1,0,0,1,.75-.35,1.08,1.08,0,0,0,.91-.79,2,2,0,0,1-1-.08,1.7,1.7,0,0,0-.95,0,.64.64,0,0,0-.29.16l.67,2.69H13.39V13.39h3.55Zm0-4.09h-.67a3.14,3.14,0,0,0-.7-1.74l-.42.41a2.53,2.53,0,0,1,.54,1.33h-2.3V10.54a2.63,2.63,0,0,1,1.33.55l.41-.41A3.16,3.16,0,0,0,13.39,10V9.29h3.55Z" style="fill:#fff"/> </symbol><symbol viewBox="0 0 48 48" id="icon-5-disabled"><title>Letterbox Hybrid - disabled</title><circle cx="24" cy="24" r="24" fill="#fff"/><circle cx="24" cy="24" r="20" fill="#cdcdcd"/><path d="M12.48 16.32v.8l8.942 6.019.028-.018 1.17.8-.019.013 1.579 1.062 1.578-1.062-.018-.014 1.17-.8.028.018 8.942-6.019v-.8h-23.4v.001zm0 2.4v12-1.6l7.689-5.143-7.689-5.257zm11.7 8l-2.84-1.942-8.86 5.942h23.4l-8.86-5.942-2.84 1.942zm11.7 2.4v-10.4l-7.689 5.257 7.689 5.143z" fill="#fff"/></symbol><symbol viewBox="0 0 48 48" id="icon-5"><title>Letterbox Hybrid</title><circle cx="24" cy="24" r="24" fill="#fff"/><circle cx="24" cy="24" r="20" fill="#12508c"/><path d="M12.48 16.32v.8l8.94 6 1.17.8L24.18 25l1.58-1.06 1.17-.8 8.94-6v-.8zm0 2.4v10.4L20.17 24l-7.69-5.26zm11.7 8l-2.84-1.94-8.86 5.94h23.4L27 24.78l-2.84 1.94zm11.7 2.4v-10.4L28.19 24l7.69 5.14z" fill="#fff"/></symbol><symbol viewBox="0 0 48 48" id="icon-6-disabled"><title>Event Cache - disabled</title><circle cx="24" cy="24" r="24" fill="#fff"/><circle cx="24" cy="24" r="20" fill="#cdcdcd"/><path d="M33.651 14.705H14.349c-.82 0-1.485.688-1.485 1.536v13.056c0 .848.665 1.536 1.485 1.536h10.394v6.144l5.939-6.144h2.97c.82 0 1.485-.688 1.485-1.536V16.241c-.001-.849-.666-1.536-1.486-1.536zm-16.333 9.216h9.651v1.536h-9.651v-1.536zm0-3.072h13.363v1.536H17.318v-1.536z" fill="#fff"/></symbol><symbol viewBox="0 0 48 48" id="icon-6"><title>Event Cache</title><circle cx="24" cy="24" r="24" fill="#fff"/><circle cx="24" cy="24" r="20" fill="#90040b"/><path d="M33.651 14.705H14.349c-.82 0-1.485.688-1.485 1.536v13.056c0 .848.665 1.536 1.485 1.536h10.394v6.144l5.939-6.144h2.97c.82 0 1.485-.688 1.485-1.536V16.241c-.001-.849-.666-1.536-1.486-1.536zm-16.333 9.216h9.651v1.536h-9.651v-1.536zm0-3.072h13.363v1.536H17.318v-1.536z" fill="#fff"/></symbol><symbol viewBox="0 0 48 48" id="icon-7005-disabled"><title>Giga-Event - disabled</title><ellipse cx="24" cy="24" rx="24" ry="24" fill="#fff"/><ellipse cx="24" cy="24" rx="20" ry="20" fill="#cdcdcd"/><path d="M16.092 27.269a7.226 7.226 0 0 1-1.716.559 9.603 9.603 0 0 1-1.823.172c-.659 0-1.267-.093-1.823-.28s-1.037-.453-1.442-.801a3.642 3.642 0 0 1-.947-1.263C8.113 25.161 8 24.609 8 24s.113-1.161.34-1.656c.226-.495.542-.916.947-1.263.405-.348.886-.615 1.442-.801s1.164-.28 1.824-.28c.675 0 1.297.073 1.865.22s1.067.4 1.496.758l-1.311 1.29c-.254-.237-.54-.416-.858-.538s-.715-.183-1.192-.183c-.397 0-.757.061-1.079.183-.322.122-.598.292-.828.511s-.407.478-.53.78a2.55 2.55 0 0 0-.185.979c0 .358.062.686.185.984.123.297.3.556.53.774s.507.389.828.511c.322.122.681.183 1.079.183.405 0 .755-.041 1.049-.124a4.18 4.18 0 0 0 .703-.253v-1.237h-1.514V23.29h3.301v3.979zm2.106-7.075h1.859v7.613h-1.859v-7.613zm11.688 7.075a7.226 7.226 0 0 1-1.716.559 9.613 9.613 0 0 1-1.824.172 5.689 5.689 0 0 1-1.823-.28 4.258 4.258 0 0 1-1.442-.801 3.642 3.642 0 0 1-.947-1.263c-.226-.495-.34-1.047-.34-1.656s.113-1.161.34-1.656c.226-.495.542-.916.947-1.263a4.258 4.258 0 0 1 1.442-.801 5.717 5.717 0 0 1 1.823-.28c.675 0 1.297.073 1.865.22.568.147 1.067.4 1.496.758l-1.311 1.29a2.626 2.626 0 0 0-.858-.538c-.318-.122-.715-.183-1.192-.183-.397 0-.757.061-1.079.183-.322.122-.598.292-.828.511s-.407.478-.53.78-.185.628-.185.979c0 .358.062.686.185.984.123.297.3.556.53.774s.507.389.828.511c.322.122.681.183 1.079.183.405 0 .755-.041 1.049-.124a4.18 4.18 0 0 0 .703-.253v-1.237h-1.514V23.29h3.301v3.979zm4.906-7.075h1.537L40 27.806h-2.098l-.727-1.613h-3.277l-.703 1.613h-2.05l3.647-7.612zm.715 2.215l-1.025 2.366h2.062l-1.037-2.366z" fill="#fff"/><path d="M16.092 27.269a7.226 7.226 0 0 1-1.716.559 9.603 9.603 0 0 1-1.823.172c-.659 0-1.267-.093-1.823-.28s-1.037-.453-1.442-.801a3.642 3.642 0 0 1-.947-1.263C8.113 25.161 8 24.609 8 24s.113-1.161.34-1.656c.226-.495.542-.916.947-1.263.405-.348.886-.615 1.442-.801s1.164-.28 1.824-.28c.675 0 1.297.073 1.865.22s1.067.4 1.496.758l-1.311 1.29c-.254-.237-.54-.416-.858-.538s-.715-.183-1.192-.183c-.397 0-.757.061-1.079.183-.322.122-.598.292-.828.511s-.407.478-.53.78a2.55 2.55 0 0 0-.185.979c0 .358.062.686.185.984.123.297.3.556.53.774s.507.389.828.511c.322.122.681.183 1.079.183.405 0 .755-.041 1.049-.124a4.18 4.18 0 0 0 .703-.253v-1.237h-1.514V23.29h3.301v3.979zm2.106-7.075h1.859v7.613h-1.859v-7.613zm11.688 7.075a7.226 7.226 0 0 1-1.716.559 9.613 9.613 0 0 1-1.824.172 5.689 5.689 0 0 1-1.823-.28 4.258 4.258 0 0 1-1.442-.801 3.642 3.642 0 0 1-.947-1.263c-.226-.495-.34-1.047-.34-1.656s.113-1.161.34-1.656c.226-.495.542-.916.947-1.263a4.258 4.258 0 0 1 1.442-.801 5.717 5.717 0 0 1 1.823-.28c.675 0 1.297.073 1.865.22.568.147 1.067.4 1.496.758l-1.311 1.29a2.626 2.626 0 0 0-.858-.538c-.318-.122-.715-.183-1.192-.183-.397 0-.757.061-1.079.183-.322.122-.598.292-.828.511s-.407.478-.53.78-.185.628-.185.979c0 .358.062.686.185.984.123.297.3.556.53.774s.507.389.828.511c.322.122.681.183 1.079.183.405 0 .755-.041 1.049-.124a4.18 4.18 0 0 0 .703-.253v-1.237h-1.514V23.29h3.301v3.979zm4.906-7.075h1.537L40 27.806h-2.098l-.727-1.613h-3.277l-.703 1.613h-2.05l3.647-7.612zm.715 2.215l-1.025 2.366h2.062l-1.037-2.366z" fill="#fff"/></symbol><symbol viewBox="0 0 10 10" id="icon-7005-simple"><title>Giga</title><path d="M8 7.445c-.407.193-.836.334-1.277.42-.445.088-.897.133-1.35.135-.46.004-.916-.067-1.352-.21-.39-.128-.754-.332-1.068-.6-.298-.26-.536-.582-.698-.945-.34-.794-.34-1.694 0-2.49.162-.362.4-.684.698-.944.314-.267.677-.47 1.07-.6.46-.15.94-.22 1.424-.21.465-.003.93.053 1.38.166.41.104.79.298 1.115.57l-.98.975c-.184-.174-.4-.312-.638-.404-.286-.1-.588-.145-.89-.135-.274-.004-.546.042-.802.136-.227.088-.434.22-.61.39-.173.163-.31.363-.4.585-.19.482-.19 1.02 0 1.5.09.222.227.42.4.585.176.17.383.303.61.39.256.094.528.14.8.135.26.004.52-.026.773-.09.188-.082.367-.182.535-.3v-.93H5.624V4.416H8v3.03z" fill="currentColor" fill-rule="evenodd"/></symbol><symbol viewBox="0 0 48 48" id="icon-7005"><title>Giga-Event</title><ellipse cx="24" cy="24" rx="24" ry="24" fill="#fff"/><ellipse cx="24" cy="24" rx="20" ry="20" fill="#90040b"/><path d="M16.092 27.269a7.226 7.226 0 0 1-1.716.559 9.603 9.603 0 0 1-1.823.172c-.659 0-1.267-.093-1.823-.28s-1.037-.453-1.442-.801a3.642 3.642 0 0 1-.947-1.263C8.113 25.161 8 24.609 8 24s.113-1.161.34-1.656c.226-.495.542-.916.947-1.263.405-.348.886-.615 1.442-.801s1.164-.28 1.824-.28c.675 0 1.297.073 1.865.22s1.067.4 1.496.758l-1.311 1.29c-.254-.237-.54-.416-.858-.538s-.715-.183-1.192-.183c-.397 0-.757.061-1.079.183-.322.122-.598.292-.828.511s-.407.478-.53.78a2.55 2.55 0 0 0-.185.979c0 .358.062.686.185.984.123.297.3.556.53.774s.507.389.828.511c.322.122.681.183 1.079.183.405 0 .755-.041 1.049-.124a4.18 4.18 0 0 0 .703-.253v-1.237h-1.514V23.29h3.301v3.979zm2.106-7.075h1.859v7.613h-1.859v-7.613zm11.688 7.075a7.226 7.226 0 0 1-1.716.559 9.613 9.613 0 0 1-1.824.172 5.689 5.689 0 0 1-1.823-.28 4.258 4.258 0 0 1-1.442-.801 3.642 3.642 0 0 1-.947-1.263c-.226-.495-.34-1.047-.34-1.656s.113-1.161.34-1.656c.226-.495.542-.916.947-1.263a4.258 4.258 0 0 1 1.442-.801 5.717 5.717 0 0 1 1.823-.28c.675 0 1.297.073 1.865.22.568.147 1.067.4 1.496.758l-1.311 1.29a2.626 2.626 0 0 0-.858-.538c-.318-.122-.715-.183-1.192-.183-.397 0-.757.061-1.079.183-.322.122-.598.292-.828.511s-.407.478-.53.78-.185.628-.185.979c0 .358.062.686.185.984.123.297.3.556.53.774s.507.389.828.511c.322.122.681.183 1.079.183.405 0 .755-.041 1.049-.124a4.18 4.18 0 0 0 .703-.253v-1.237h-1.514V23.29h3.301v3.979zm4.906-7.075h1.537L40 27.806h-2.098l-.727-1.613h-3.277l-.703 1.613h-2.05l3.647-7.612zm.715 2.215l-1.025 2.366h2.062l-1.037-2.366z" fill="#fff"/><path d="M16.092 27.269a7.226 7.226 0 0 1-1.716.559 9.603 9.603 0 0 1-1.823.172c-.659 0-1.267-.093-1.823-.28s-1.037-.453-1.442-.801a3.642 3.642 0 0 1-.947-1.263C8.113 25.161 8 24.609 8 24s.113-1.161.34-1.656c.226-.495.542-.916.947-1.263.405-.348.886-.615 1.442-.801s1.164-.28 1.824-.28c.675 0 1.297.073 1.865.22s1.067.4 1.496.758l-1.311 1.29c-.254-.237-.54-.416-.858-.538s-.715-.183-1.192-.183c-.397 0-.757.061-1.079.183-.322.122-.598.292-.828.511s-.407.478-.53.78a2.55 2.55 0 0 0-.185.979c0 .358.062.686.185.984.123.297.3.556.53.774s.507.389.828.511c.322.122.681.183 1.079.183.405 0 .755-.041 1.049-.124a4.18 4.18 0 0 0 .703-.253v-1.237h-1.514V23.29h3.301v3.979zm2.106-7.075h1.859v7.613h-1.859v-7.613zm11.688 7.075a7.226 7.226 0 0 1-1.716.559 9.613 9.613 0 0 1-1.824.172 5.689 5.689 0 0 1-1.823-.28 4.258 4.258 0 0 1-1.442-.801 3.642 3.642 0 0 1-.947-1.263c-.226-.495-.34-1.047-.34-1.656s.113-1.161.34-1.656c.226-.495.542-.916.947-1.263a4.258 4.258 0 0 1 1.442-.801 5.717 5.717 0 0 1 1.823-.28c.675 0 1.297.073 1.865.22.568.147 1.067.4 1.496.758l-1.311 1.29a2.626 2.626 0 0 0-.858-.538c-.318-.122-.715-.183-1.192-.183-.397 0-.757.061-1.079.183-.322.122-.598.292-.828.511s-.407.478-.53.78-.185.628-.185.979c0 .358.062.686.185.984.123.297.3.556.53.774s.507.389.828.511c.322.122.681.183 1.079.183.405 0 .755-.041 1.049-.124a4.18 4.18 0 0 0 .703-.253v-1.237h-1.514V23.29h3.301v3.979zm4.906-7.075h1.537L40 27.806h-2.098l-.727-1.613h-3.277l-.703 1.613h-2.05l3.647-7.612zm.715 2.215l-1.025 2.366h2.062l-1.037-2.366z" fill="#fff"/></symbol><symbol viewBox="0 0 48 48" id="icon-8-disabled"><title>Mystery Cache - disabled</title><circle cx="24" cy="24" r="24" fill="#fff"/><circle cx="24" cy="24" r="20" fill="#cdcdcd"/><path d="M23.131 11.52c-6.949 0-8.254 4.578-8.251 6.659 0 2.497 1.737 3.329 3.909 3.329 2.268 0 3.04-1.628 3.04-2.497s-.434-2.497-2.606-2.497c0-.869 1.424-1.665 3.909-1.665 2.606 0 3.909 1.665 3.909 3.329 0 1.665-.469 2.456-2.606 4.162-2.606 2.081-3.474 3.329-3.474 4.994-.002.832 0 1.23 0 1.665 0 .416.869.832 1.737.832.869 0 1.737-.416 1.737-.832 0-1.739-.013-2.515 3.909-4.994 3.909-2.497 4.777-3.746 4.777-5.827-.001-2.496-1.304-6.658-9.99-6.658zm-.447 19.961c-1.441 0-2.608 1.119-2.608 2.499s1.168 2.5 2.608 2.5c1.44 0 2.608-1.119 2.608-2.5s-1.168-2.499-2.608-2.499z" fill="#fff"/></symbol><symbol viewBox="0 0 48 48" id="icon-8"><title>Mystery Cache</title><circle cx="23.997" cy="24" r="24" fill="#fff"/><circle cx="23.997" cy="24" r="20" fill="#12508c"/><path d="M23.128 11.52c-6.949 0-8.254 4.578-8.251 6.659 0 2.497 1.737 3.329 3.909 3.329 2.268 0 3.04-1.628 3.04-2.497s-.434-2.497-2.606-2.497c0-.869 1.424-1.665 3.909-1.665 2.606 0 3.909 1.665 3.909 3.329 0 1.665-.469 2.456-2.606 4.162-2.606 2.081-3.474 3.329-3.474 4.994-.002.832 0 1.23 0 1.665 0 .416.869.832 1.737.832.869 0 1.737-.416 1.737-.832 0-1.739-.013-2.515 3.909-4.994 3.909-2.497 4.777-3.746 4.777-5.827-.001-2.496-1.304-6.658-9.99-6.658zm-.448 19.961c-1.441 0-2.608 1.119-2.608 2.499s1.168 2.5 2.608 2.5c1.44 0 2.608-1.119 2.608-2.5s-1.168-2.499-2.608-2.499z" fill="#fff"/></symbol><symbol viewBox="0 0 48 48" id="icon-9-disabled"><title>Project APE Cache - disabled</title><circle cx="24" cy="24" r="24" fill="#fff"/><circle cx="24" cy="24" r="20" fill="#cdcdcd"/><path d="M14.204 20.247h-.051l-1.205 4.613h2.46l-1.204-4.613zm13.515 2.517c0-2.899-1.965-3.798-3.007-3.798h-1.175v7.451h1.293c1.042.001 2.889-.754 2.889-3.653zM38.72 16l-.073 3.08h-3.863v2.162h3.746v3.027h-3.746v2.091h3.863l.073 3.149h-6.755V16h6.755zm-22.765.053l4.185 13.271-.011-13.271h4.433c1.277 0 2.805.054 3.829.968.974.877 2.368 2.447 2.368 5.749 0 3.303-1.344 4.71-2.217 5.534-1.075 1.003-2.233 1.146-3.627 1.146h-1.377l-.015 5.126h-3.377l-.004-5.101h-3.347l-.545-1.88h-4.173l-.595 1.88H8l4.534-13.422h3.421z" fill="#fff"/></symbol><symbol viewBox="0 0 48 48" id="icon-9"><title>Project APE Cache</title><circle cx="24.003" cy="24" r="24" fill="#fff"/><circle cx="24.003" cy="24" r="20" fill="#02874d"/><path d="M14.208 20.247h-.051l-1.205 4.613h2.46l-1.204-4.613zm13.514 2.517c0-2.899-1.965-3.798-3.007-3.798H23.54v7.451h1.293c1.042.001 2.889-.754 2.889-3.653zM38.723 16l-.073 3.08h-3.863v2.162h3.746v3.027h-3.746v2.091h3.863l.073 3.149h-6.755V16h6.755zm-22.765.053l4.185 13.271-.011-13.271h4.433c1.277 0 2.805.054 3.829.968.974.877 2.368 2.447 2.368 5.749 0 3.303-1.344 4.71-2.217 5.534-1.075 1.003-2.233 1.146-3.627 1.146H23.54l-.015 5.126h-3.377l-.004-5.101h-3.347l-.545-1.88h-4.173l-.595 1.88h-3.48l4.534-13.422h3.42z" fill="#fff"/></symbol><symbol viewBox="0 0 24 24" id="icon-cachenote-disabled"><title>Has personal geocache note - disabled</title><circle cx="12" cy="12" r="12" fill="#fff"/><circle cx="12" cy="12" r="10" fill="#cdcdcd"/><path d="M8.038 8.065c-.828 0-1.494.691-1.494 1.532v4.551c0 .841.666 1.532 1.494 1.532h8.275c.828 0 1.494-.691 1.494-1.532V9.597c0-.841-.666-1.532-1.494-1.532H8.038zm0 1h8.275c.268 0 .494.235.494.532v4.551c0 .297-.226.532-.494.532H8.038c-.268 0-.494-.235-.494-.532V9.597c0-.297.226-.532.494-.532zm8.275 6.18H8.038C7.47 15.245 7 14.757 7 14.148V9.597C7 8.988 7.47 8.5 8.038 8.5h8.275c.568 0 1.038.488 1.038 1.097v4.551c0 .609-.47 1.097-1.038 1.097zm0 1c1.129 0 2.038-.944 2.038-2.097V9.597c0-1.153-.909-2.097-2.038-2.097H8.038C6.909 7.5 6 8.444 6 9.597v4.551c0 1.153.909 2.097 2.038 2.097h8.275z" fill="#fff"/><path d="M7.272 8.88v.55l.385-.357h-.51l3.918 3.638c.259.239.599.37.957.37.359 0 .7-.131.958-.37l4.224-3.923h-.51l.385.357v-.55l-4.224 3.923a1.217 1.217 0 0 1-.833.319c-.316 0-.611-.114-.832-.319L7.272 8.88zm4.75 4.707c.504 0 .982-.184 1.343-.519l4.224-3.923.296-.275-.936-.868-4.479 4.16a.655.655 0 0 1-.448.17.654.654 0 0 1-.447-.17L7.657 8.523l-.255-.237-.937.869 4.214 3.913c.362.335.839.519 1.343.519z" fill="#fff"/></symbol><symbol viewBox="0 0 24 24" id="icon-cachenote"><title>Has personal geocache note</title><circle cx="12" cy="12" r="12" fill="#fff"/><circle cx="12" cy="12" r="10" fill="#00b265"/><path d="M8.038 8.065c-.828 0-1.494.691-1.494 1.532v4.551c0 .841.666 1.532 1.494 1.532h8.275c.828 0 1.494-.691 1.494-1.532V9.597c0-.841-.666-1.532-1.494-1.532H8.038zm0 1h8.275c.268 0 .494.235.494.532v4.551c0 .297-.226.532-.494.532H8.038c-.268 0-.494-.235-.494-.532V9.597c0-.297.226-.532.494-.532zm8.275 6.18H8.038C7.47 15.245 7 14.757 7 14.148V9.597C7 8.988 7.47 8.5 8.038 8.5h8.275c.568 0 1.038.488 1.038 1.097v4.551c0 .609-.47 1.097-1.038 1.097zm0 1c1.129 0 2.038-.944 2.038-2.097V9.597c0-1.153-.909-2.097-2.038-2.097H8.038C6.909 7.5 6 8.444 6 9.597v4.551c0 1.153.909 2.097 2.038 2.097h8.275z" fill="#fff"/><path d="M7.272 8.88v.55l.385-.357h-.51l3.918 3.638c.259.239.599.37.957.37.359 0 .7-.131.958-.37l4.224-3.923h-.51l.385.357v-.55l-4.224 3.923a1.217 1.217 0 0 1-.833.319c-.316 0-.611-.114-.832-.319L7.272 8.88zm4.75 4.707c.504 0 .982-.184 1.343-.519l4.224-3.923.296-.275-.936-.868-4.479 4.16a.655.655 0 0 1-.448.17.654.654 0 0 1-.447-.17L7.657 8.523l-.255-.237-.937.869 4.214 3.913c.362.335.839.519 1.343.519z" fill="#fff"/></symbol><symbol viewBox="0 0 24 24" id="icon-correctedcoords-disabled"><title>Has corrected coordinates - disabled</title><circle cx="12" cy="12" r="12" fill="#fff"/><circle cx="12" cy="12" r="10" fill="#cdcdcd"/><path d="M15.597 11.184V9.152a.468.468 0 0 0-.487-.479h-2.05c-.684 0-.836-.575-.486-.971.577-.651.268-1.659-.781-1.702-1.047.043-1.356 1.049-.78 1.701.35.396.198.972-.486.972h-2.02c-.279 0-.508.2-.508.479v6.594c0 .279.229.515.508.515h6.603c.28 0 .487-.236.487-.515v-2.032c0-.683.571-.835.967-.486.652.575 1.653.267 1.697-.779-.044-1.047-1.04-1.354-1.692-.779-.403.444-.972.197-.972-.486" fill="#fff"/></symbol><symbol viewBox="0 0 24 24" id="icon-correctedcoords"><title>cache_icon_badge_solved</title>  <path fill="none" d="M0 0h24v24H0z"/> <circle fill="#fff" cx="12" cy="12" r="12"/> <circle fill="#4376bb" cx="12" cy="12" r="10"/> <path fill="#fff" d="M15.06 10.79v-2a.46.46 0 0 0-.48-.47h-2c-.67 0-.82-.57-.48-1a1 1 0 0 0-.77-1.68 1 1 0 0 0-.77 1.68c.34.39.19 1-.48 1h-2a.48.48 0 0 0-.5.47v6.49a.51.51 0 0 0 .5.51h6.5a.49.49 0 0 0 .48-.51v-2c0-.67.56-.82 1-.48a1 1 0 0 0 1.62-.8 1 1 0 0 0-1.68-.73c-.38.44-.94.19-.94-.48z"/> </symbol><symbol viewBox="0 0 24 24" id="icon-dnf-disabled"><title>DNF - Disabled</title><path fill="none" d="M0 0h24v24H0z"/><circle fill="#fff" cx="12" cy="12" r="12"/><circle stroke="#cdcdcd" stroke-width="2" fill="#cdcdcd" cx="12.12" cy="12.12" r="9.12"/><path fill="#cdcdcd" d="M21.24 12.12A9.12 9.12 0 1 1 12.12 3a9.12 9.12 0 0 1 9.12 9.12zM8.84 9.46a1.29 1.29 0 0 1 1.29-1.28 1.3 1.3 0 0 1 .49.1c-.27-.82-.8-1.39-1.43-1.39-.9-.01-1.62 1.11-1.62 2.58s.72 2.59 1.62 2.59c.63 0 1.17-.58 1.44-1.42a1.31 1.31 0 0 1-.5.1 1.29 1.29 0 0 1-1.29-1.28zM16 10.75a1.28 1.28 0 1 1 0-2.57 1.3 1.3 0 0 1 .49.1c-.27-.82-.8-1.39-1.43-1.39-.89 0-1.62 1.16-1.62 2.59s.72 2.59 1.62 2.59c.63 0 1.17-.58 1.44-1.42a1.31 1.31 0 0 1-.5.1z"/><path fill="#fff" d="M15.3 16.94c0-1.1-1.22-1.94-3-1.94S9 15.84 9 16.94a52.29 52.29 0 0 0 6.3 0zM8.84 9.46a1.29 1.29 0 0 1 1.29-1.28 1.3 1.3 0 0 1 .49.1c-.27-.82-.8-1.39-1.43-1.39-.9-.01-1.62 1.11-1.62 2.58s.72 2.59 1.62 2.59c.63 0 1.17-.58 1.44-1.42a1.31 1.31 0 0 1-.5.1 1.29 1.29 0 0 1-1.29-1.28zM16 10.75a1.28 1.28 0 1 1 0-2.57 1.3 1.3 0 0 1 .49.1c-.27-.82-.8-1.39-1.43-1.39-.89 0-1.62 1.16-1.62 2.59s.72 2.59 1.62 2.59c.63 0 1.17-.58 1.44-1.42a1.31 1.31 0 0 1-.5.1z"/></symbol><symbol viewBox="0 0 24 24" id="icon-dnf"><title>DNF</title><circle fill="#fff" cx="12" cy="12" r="12"/><circle fill="#1c3d4c" stroke="#1c3d4c" stroke-width="2" cx="12.12" cy="12.12" r="9.12"/><path fill="#51a6d0" d="M21.24 12.12A9.12 9.12 0 1 1 12.12 3a9.12 9.12 0 0 1 9.12 9.12zM8.84 9.46a1.29 1.29 0 0 1 1.29-1.28 1.3 1.3 0 0 1 .49.1c-.27-.82-.8-1.39-1.43-1.39-.9-.01-1.62 1.11-1.62 2.58s.72 2.59 1.62 2.59c.63 0 1.17-.58 1.44-1.42a1.31 1.31 0 0 1-.5.1 1.29 1.29 0 0 1-1.29-1.28zM16 10.75a1.28 1.28 0 1 1 0-2.57 1.3 1.3 0 0 1 .49.1c-.27-.82-.8-1.39-1.43-1.39-.89 0-1.62 1.16-1.62 2.59s.72 2.59 1.62 2.59c.63 0 1.17-.58 1.44-1.42a1.31 1.31 0 0 1-.5.1z"/><path fill="#1d3d4c" d="M15.3 16.94c0-1.1-1.22-1.94-3-1.94S9 15.84 9 16.94a52.29 52.29 0 0 0 6.3 0z"/></symbol><symbol viewBox="0 0 24 24" id="icon-draft-disabled"><title>draft-disabled</title><g fill="none" fill-rule="evenodd"><path d="M0 0h24v24H0z"/><circle cx="12" cy="12" r="12" fill="#FFF"/><circle cx="12" cy="12" r="10" fill="#CDCDCD"/><path fill="#FFF" d="M10 5l.5274725 8.3899278h2.934066L14 5h-4zm0 12.1114608C10 18.2779115 10.7692308 19 12 19c1.2417582 0 2-.7220885 2-1.8885392 0-1.1775597-.7582418-1.8996482-2-1.8996482-1.2307692 0-2 .7220885-2 1.8996482z"/></g></symbol><symbol viewBox="0 0 24 24" id="icon-draft"><title>cache_icon_badge_draft</title><path fill="none" d="M0 0h24v24H0z"/><circle fill="#ffffff" cx="12" cy="12" r="12"/><circle fill="#4376bb" cx="12" cy="12" r="10"/><path fill="#ffffff" d="M10 5l.53 8.39h2.93L14 5zm0 12.11A1.81 1.81 0 0 0 12 19a1.8 1.8 0 0 0 2-1.89 1.8 1.8 0 0 0-2-1.9 1.81 1.81 0 0 0-2 1.9z"/></symbol><symbol viewBox="0 0 24 24" id="icon-found-disabled"><title>Found Geocache - disabled</title><circle cx="12" cy="12" r="12" fill="#fff"/><circle cx="12" cy="12" r="10" fill="#cdcdcd"/><path d="M10.266 10.288a1.426 1.426 0 1 1 .541-2.745C10.505 6.629 9.915 6 9.226 6c-.99 0-1.794 1.288-1.794 2.876 0 1.591.804 2.879 1.794 2.879.698 0 1.296-.645 1.593-1.577-.171.07-.359.11-.553.11m6.5 0a1.426 1.426 0 1 1 .541-2.745C17.005 6.629 16.415 6 15.726 6c-.99 0-1.794 1.288-1.794 2.876 0 1.591.804 2.879 1.794 2.879.698 0 1.296-.645 1.593-1.577-.17.07-.359.11-.553.11M6 14.588c.171 3.283 3.047 5.379 6.374 5.379 3.328 0 6.202-2.096 6.375-5.379H6z" fill="#fff"/><path d="M12.714 19.064c-1.638 0-2.965.018-2.965-.69s1.327-1.283 2.965-1.283c1.637 0 2.965.575 2.965 1.283s-1.328.69-2.965.69" fill="#cdcdcd"/></symbol><symbol viewBox="0 0 24 24" id="icon-found"><title>Found It</title>  <path fill="none" d="M0 0h24v24H0z"/> <circle fill="#fff" cx="12" cy="12" r="12"/> <circle fill="#684e2f" stroke="#684e2f" stroke-width="2px" cx="12.12" cy="12.12" r="9.12"/> <path fill="#f7e712" d="M12.38 14.52L12.12 3A9.12 9.12 0 1 1 3 12.12 9.12 9.12 0 0 1 12.12 3l.26 11.52h-6c.15 3 2.75 4.85 5.74 4.85s5.59-1.89 5.74-4.85zM8.84 9.46a1.29 1.29 0 0 1 1.29-1.28 1.3 1.3 0 0 1 .49.1c-.27-.82-.8-1.39-1.43-1.39-.9-.01-1.62 1.11-1.62 2.58s.72 2.59 1.62 2.59c.63 0 1.17-.58 1.44-1.42a1.31 1.31 0 0 1-.5.1 1.29 1.29 0 0 1-1.29-1.28zM16 10.75a1.28 1.28 0 1 1 0-2.57 1.3 1.3 0 0 1 .49.1c-.27-.82-.8-1.39-1.43-1.39-.89 0-1.62 1.16-1.62 2.59s.72 2.59 1.62 2.59c.63 0 1.17-.58 1.44-1.42a1.31 1.31 0 0 1-.5.1zm-3.9 7.86c-1.48 0-2.67 0-2.67-.62s1.2-1.16 2.67-1.16 2.67.52 2.67 1.16-1.18.62-2.65.62z"/> </symbol><symbol viewBox="0 0 48 48" id="icon-generic"><title>Geocache</title><circle cx="24" cy="24" r="24" fill="#fff"/><circle cx="24" cy="24" r="20" fill="#00b265"/><path d="M37.4 16.4c0-.2-.2-.4-.4-.4H25.4l-15 3.6s-.4 0-.4.8v2c0 .8.6.6.6.6h.2v6.6c0 1.6 1.2 3 2.6 3H22c.4 0 .8-.2 1.2-.4l11-4.6c2.2-1 2.4-1.8 2.4-3.4v-5.6c.2 0 .6-.2.6-.2s.2 0 .2-.4v-1.6zM21.6 31h-7.8c-.6 0-1.2-.8-1.2-1.6v-6.2h10.2v6.2c0 .8-.6 1.6-1.2 1.6zm13.2-7c0 1.4-.2 1.6-1.6 2.2L24.6 30v-6.8s.6-.4.8-.4c1.8-.6 6.8-2.4 9.4-3.4V24z" fill="#fff"/></symbol><symbol viewBox="0 0 48 48" id="icon-generic_disabled"><title>Geocache - disabled</title><circle cx="24" cy="24" r="24" fill="#fff"/><circle cx="24" cy="24" r="20" fill="#cdcdcd"/><path d="M37.43 16.444a.435.435 0 0 0-.429-.441c-.409-.01-11.518.006-11.518.006l-15.117 3.683s-.367.092-.367.736v1.919c0 .708.613.662.613.662l.237.049v6.693c0 1.659 1.138 3.017 2.561 3.017h8.58c.425 0 .819-.133 1.174-.345l.005.015 11.092-4.594c2.279-1.027 2.36-1.854 2.319-3.492 0-.193-.009-.404-.009-.635V18.63c.169-.06.601-.101.61-.11.006-.004.257-.092.257-.423 0-.401-.008-1.221-.008-1.653zM21.588 30.988h-7.749c-.696 0-1.259-.744-1.259-1.66v-6.269h10.268v6.269c0 .915-.564 1.66-1.26 1.66zm13.276-6.963c.03 1.31-.12 1.587-1.535 2.216l-8.814 3.707c.03-.193.049-.391.049-.593l.006-6.297s.658-.373.857-.441c1.846-.633 6.784-2.412 9.424-3.365v4.105c0 .244.005.466.013.668z" fill="#fff"/></symbol><symbol viewBox="0 0 24 24" id="icon-owned-disabled"><title>owned-disabled</title><path fill="none" d="M0 0h24v24H0z"/><circle fill="#fff" cx="12" cy="12" r="12"/><circle cx="12" cy="12" r="10" fill="#cdcdcd"/><path fill="#fff" d="M9.46 17.14c-.6.33-1 0-.89-.67l.48-3L7 11.42c-.49-.5-.34-1 .34-1.09l2.84-.43 1.27-2.7c.3-.64.79-.64 1.09 0l1.27 2.69 2.84.43c.68.1.83.59.34 1.09l-2.05 2.1.49 3c.12.7-.28 1-.89.67L12 15.75l-2.54 1.4z"/></symbol><symbol viewBox="0 0 24 24" id="icon-owned"><title>owned</title><path fill="none" d="M0 0h24v24H0z"/><circle fill="#fff" cx="12" cy="12" r="12"/><circle cx="12" cy="12" r="10" fill="#e2b32a"/><path fill="#fff" d="M9.46 17.14c-.6.33-1 0-.89-.67l.48-3L7 11.42c-.49-.5-.34-1 .34-1.09l2.84-.43 1.27-2.7c.3-.64.79-.64 1.09 0l1.27 2.69 2.84.43c.68.1.83.59.34 1.09l-2.05 2.1.49 3c.12.7-.28 1-.89.67L12 15.75l-2.54 1.4z"/></symbol></svg>